<?xml version="1.0" encoding="UTF-8"?>
<!DOCTYPE svg PUBLIC "-//W3C//DTD SVG 1.1//EN" "http://www.w3.org/Graphics/SVG/1.1/DTD/svg11.dtd">
<!-- Creator: CorelDRAW -->
<svg xmlns="http://www.w3.org/2000/svg" xml:space="preserve" width="72.523mm" height="77.6681mm" version="1.1" style="shape-rendering:geometricPrecision; text-rendering:geometricPrecision; image-rendering:optimizeQuality; fill-rule:evenodd; clip-rule:evenodd"
viewBox="0 0 7091.16 7594.24"
 xmlns:xlink="http://www.w3.org/1999/xlink"
 xmlns:xodm="http://www.corel.com/coreldraw/odm/2003">
 <defs>
  <style type="text/css">
   <![CDATA[
    .fil0 {fill:#D9E8F5}
    .fil1 {fill:#FF6600}
   ]]>
  </style>
 </defs>
 <g id="Layer_x0020_1">
  <metadata id="CorelCorpID_0Corel-Layer"/>
  <path class="fil0" d="M2433.92 5913.23c71.43,6.95 511.71,448.82 1085.15,455.31 220.15,2.49 447.26,-24.42 633.42,-133.27 48.89,-28.58 81.95,-35.15 128.04,-62.54l359.93 -231.51c24.09,104.01 26.55,197.5 64.75,298.5 22.37,59.1 38.86,76.23 75.96,112.54l89.16 87.09c1.54,1.74 5.11,5.37 6.97,8.54 -81.99,162.39 -210.08,301.15 -356.41,389.64 -46.6,28.19 -104.51,63.75 -160.77,87.64 -493.43,209.48 -1130.71,258.98 -1625.44,2.29 -376.06,-195.1 -250.68,-171.49 -358.54,-254.35 -77.23,-59.33 -116.35,-143.31 -161.63,-230.33 161.74,-114.93 207,-259.56 219.4,-529.55zm-209.25 -2783.03c191.21,-12.86 806.45,-63.28 901.87,67.63 82.98,113.86 26.14,279.2 -1.15,406.95 -14.56,68.28 -21.26,135.08 -43.93,202.6 -26.25,78.21 -46.45,98.26 -123.2,127.68 -101.8,39.04 -353.12,29.18 -473.67,28.08 -414.96,-3.79 -427.52,-73.46 -461.35,-533.86 -13.9,-189.31 -1.27,-285.42 201.43,-299.08zm1853.85 1.9c161.68,-18.94 829.61,-47.14 935.27,42.93 96.61,82.37 56.21,295.6 34.7,428.55 -57.36,354.84 -57.67,368.44 -654.4,359.14 -411.84,-6.43 -389.79,-41.66 -477.25,-523.71 -30.32,-167.06 -10.61,-286.73 161.68,-306.92zm-1492.87 -751.73c539.36,95.56 1125.41,-44.73 1596.58,-298.93 114.33,-61.69 285.38,-169.32 365.09,-272.18 54.03,12.6 131.05,72.01 169.21,103.93l124.15 123.15c180.46,160.7 486.82,836.84 426.46,1069.17 -57.32,-37.04 -50.49,-89.55 -130.83,-124.4 -168.78,-73.27 -1043.76,-69.83 -1205.49,-13.05 -176.99,62.14 -61.62,147.82 -382.17,148.01 -499.67,0.27 21.91,-172.59 -859.88,-188.84 -147.25,-2.73 -592.55,-5.67 -727.18,54.36 -72.79,32.45 -79.52,99.25 -147.9,121.75 16.87,-301.71 69.98,-439.96 216.06,-651.5 96.37,-139.57 316.57,-275.71 585.19,-279.16l-29.3 207.68zm-2585.66 5209.67l7091.16 4.2c-22.13,-170.75 -277.24,-494.55 -403.91,-582 -206.75,-142.75 -379.02,-269.23 -632.4,-373.22 -229.43,-94.15 -454.18,-201.33 -699.68,-291.38 -254.03,-93.19 -413.22,-94.6 -440.05,-307.8 -9.94,-79.17 3.74,-159.38 -15.94,-240.46 -88.53,4.88 -279.97,-10.67 -344.03,24.6 -0.79,0.43 -33.27,28.74 -44.09,40.27 -55.71,59.36 -76.18,84.84 -162.15,131.6 -106.93,58.17 -196.55,53.89 -319.14,54.18 -304.21,0.73 -606.52,206.67 -1231.55,-192.63 -100.82,-64.43 -353,-275.94 -413.18,-344.35l-171.24 -208.2c-100.8,-133.29 -188.95,-302.06 -269.9,-488.99 -202.7,-468.12 -194.92,-820.18 -206.69,-1334.79l103.83 52.88c50.56,265.72 27.41,433.21 232.95,553.97 138.72,81.51 570.68,70.94 746.27,58.72 465.77,-32.44 448.27,-264.89 521.69,-673.85 24.27,-135.16 103.74,-160.02 279.97,-132.55 184.76,28.82 101.54,360.03 211.76,578.17 119.34,236.21 291.21,227.57 575,233.46 239.26,4.98 530.48,11.67 683.8,-124.9 56.46,-50.28 104.62,-156.88 124.26,-268.58 39.22,-223.28 -10.64,-229.85 141.91,-272.87 -31.6,678.93 10.23,827.94 -259.24,1450.92 -62.56,144.65 -138.48,254.89 -204.49,362.14 71.42,-8.65 161.09,-36.74 228.2,-61.31 124.3,-45.5 114.18,-30.3 167.88,-136.61 244.48,-484.07 312.69,-977.17 313.92,-1524.3 0.62,-279.66 26.73,-190.33 -26.37,-428.97 -10.27,-46.12 1.66,-89.07 8.77,-139.79 23.47,-167.48 25.55,-419.8 21.37,-597.34 -6.51,-275.96 -76.17,-733.31 -283.15,-946.75 -327.57,-337.78 -455.72,-237.62 -548.74,-354.53 -112.3,-141.17 -364.13,-311.51 -540.49,-376.69 -499.9,-184.73 -1062.93,-197.07 -1556.65,-6.59 -72.81,28.09 -148.18,58.42 -211.22,95.28l-312.17 211.57c-23.72,21.18 -22.69,18.2 -49.88,38.03 -59.24,43.22 -25.57,29.65 -67.71,77.46 -37.7,42.78 -49.6,27.15 -86.29,73.19l-246.57 350.6c-363.11,624.84 -154.09,1446.21 -190.62,1587.38 -34.29,132.39 -29.81,138.18 -28.99,285.96 1.74,316.4 0.95,551.78 58.14,868.75 69.81,386.79 186.62,691.17 373.23,996.14l159.05 204.54c20.26,21.81 21.73,28.01 39.22,49.2 78.38,94.96 59.86,-10.36 56.45,236.86 -1.09,79.32 0.18,218.11 -13.53,292.28 -29.31,158.57 -225.39,180.34 -375.99,237.22 -148.04,55.94 -290.41,111.74 -437.98,173.82 -334.71,140.83 -631.33,279.36 -894.2,475.72 -34.12,25.49 -50.85,46.92 -84.74,74.58 -135.28,110.46 -340.91,353.09 -365.86,535.75z"/>
  <path class="fil1" d="M686.21 2827.87c-120.98,24.85 -248.77,192.31 -282.74,357.46 -29.71,144.54 -14.25,473.28 -13.45,638.98 3.32,698.44 734.01,777.82 842.51,715.41 94.36,-54.28 96.16,-102.21 95.69,-219.39l-0.5 -1312.46c1.34,-253.99 -39.15,-356.57 -340.71,-315.85 32.36,-552.41 203.75,-1094.1 564.83,-1506.02l311.9 -314.59c720.77,-593.14 1845.19,-732.37 2705.59,-386.59 267.07,107.33 371.76,180.72 584.08,334.87 183.54,133.29 322.72,292.86 461.84,471.76 76.82,98.77 181.07,251.25 239.68,387.31 135.87,315.36 240.2,640.91 236.17,1011.04 -237.91,-26.89 -334.01,14.28 -333.31,259.58l3.72 1457.56c24.28,138.19 72.1,110.8 128.42,164.23 -31.13,156.25 -197.11,413.94 -308.45,513.28l-163.19 128.97c-298.98,193.77 -539.38,208.09 -922.4,213 -129.01,-248.62 -254.7,-254.32 -568.28,-250.59 -514.06,6.11 -576.95,407.8 -347.42,657.24 46.26,50.26 -7.91,9.39 55.7,46.55 13.59,7.92 51.77,29.1 65.89,35.31 114.85,50.53 695.89,99.03 784.83,-212.37 434.19,8.19 746.32,-36.98 1087.73,-261.07 27.77,-18.22 28.39,-15.25 61.8,-40.54 40.22,-30.46 52.53,-50.46 92.33,-81.83 77.36,-60.96 190.06,-208.99 246.52,-292.7 72.95,-108.23 196.83,-356.35 217.88,-507.2 161.65,-31.78 321,-164.42 380.08,-251.11 123.68,-181.39 135.25,-228.51 134.38,-487.66 -0.86,-259.42 49.18,-626.78 -127.21,-816.53l-80.42 -78.56c-22.32,-22.52 -59.89,-42.71 -96.93,-56.88 16,-582.51 -207.64,-1299.48 -562.18,-1734.03l-79.05 -95.71c-110.67,-121.55 -125.37,-166.2 -265.85,-273.2l-90.34 -83.95c-859.89,-736.25 -2310.84,-844.64 -3280.12,-295.16 -151.43,85.84 -298.73,179.68 -429.22,284.09 -107.91,86.36 -228.17,201.23 -317.07,310.27 -41.57,50.98 -35.87,22.59 -85.59,88.35 -392.53,519.21 -630.13,1116.81 -607.16,1798.73z"/>
 </g>
</svg>
