<?xml version="1.0" encoding="UTF-8"?>
<!DOCTYPE svg PUBLIC "-//W3C//DTD SVG 1.1//EN" "http://www.w3.org/Graphics/SVG/1.1/DTD/svg11.dtd">
<!-- Creator: CorelDRAW -->
<svg xmlns="http://www.w3.org/2000/svg" xml:space="preserve" width="124.453mm" height="165.26mm" version="1.1" style="shape-rendering:geometricPrecision; text-rendering:geometricPrecision; image-rendering:optimizeQuality; fill-rule:evenodd; clip-rule:evenodd"
viewBox="0 0 15028.39 19955.95"
 xmlns:xlink="http://www.w3.org/1999/xlink"
 xmlns:xodm="http://www.corel.com/coreldraw/odm/2003">
 <defs>
  <style type="text/css">
   <![CDATA[
    .fil1 {fill:black;fill-rule:nonzero}
    .fil0 {fill:white;fill-rule:nonzero}
   ]]>
  </style>
 </defs>
 <g id="Layer_x0020_1">
  <metadata id="CorelCorpID_0Corel-Layer"/>
  <g id="_2541886339936">
   <path id="SvgjsPath12998" class="fil0" d="M5338.01 10208.06c0,1849.9 325.89,4226.96 -958.49,4974.58 -1284.39,757.21 -3057.59,1083.1 -3623.1,2108.69 -565.51,1025.59 -421.74,2424.99 -421.74,2424.99l14310.31 0c0,0 67.09,-1811.56 -488.83,-2530.42 -776.38,-996.83 -2664.62,-1485.66 -3613.53,-2003.26 -948.91,-517.59 -1284.39,-2405.82 -1284.39,-5022.51l-3920.24 47.93 0.01 0z"/>
   <path id="SvgjsPath12999" class="fil1" d="M14750.42 19831.34l-14511.61 0 -9.59 -95.86c-9.59,-57.52 -143.77,-1447.32 431.33,-2492.08 392.99,-709.29 1293.96,-1083.1 2252.46,-1485.66 479.25,-201.29 977.67,-412.15 1418.57,-661.36 1016.01,-594.27 968.08,-2290.8 920.15,-3929.82 -9.59,-335.47 -19.18,-651.78 -19.18,-958.49l0 -105.43 4140.69 -38.34 0 105.43c0,2865.89 402.57,4476.16 1226.87,4926.65 277.97,153.36 642.19,306.72 1035.17,469.67 958.49,392.99 2041.6,843.47 2607.1,1562.34 584.68,738.04 517.59,2530.42 517.59,2597.52l-9.59 105.43 0.01 0.01zm-14310.32 -210.86l14099.44 0c0,-392.99 -19.18,-1773.22 -469.67,-2357.9 -527.17,-670.95 -1591.11,-1111.85 -2520.84,-1495.25 -392.99,-162.95 -766.8,-316.31 -1054.35,-479.25 -488.83,-268.38 -833.89,-853.06 -1044.76,-1792.38 -191.7,-805.13 -277.97,-1859.48 -287.55,-3210.95l-3699.79 38.34c0,268.38 9.59,546.34 19.18,843.47 47.93,1706.13 95.86,3460.17 -1025.59,4121.52 -450.49,258.79 -948.91,469.67 -1437.75,680.53 -920.15,383.4 -1792.38,747.63 -2147.03,1389.82 -479.25,824.31 -450.49,1926.58 -431.33,2262.05l0.02 0.01z"/>
   <path id="SvgjsPath13000" class="fil1" d="M6900.35 13610.72c-47.93,172.53 -38.34,325.89 47.93,498.42 76.68,153.36 201.29,258.79 373.81,277.97 38.34,0 67.09,-47.93 47.93,-76.68 -153.36,-210.87 -335.47,-402.57 -354.65,-680.53 0,-67.09 -95.86,-86.27 -115.02,-19.18z"/>
   <path id="SvgjsPath13001" class="fil1" d="M8683.15 16840.84c843.47,47.93 1734.88,-67.09 2549.6,-277.97 67.09,-19.18 57.52,-134.2 -19.18,-124.61 -843.47,105.43 -1696.54,191.7 -2540.01,316.31 -47.93,9.59 -28.75,86.27 9.59,86.27z"/>
   <path id="SvgjsPath13002" class="fil1" d="M3948.19 16361.6c364.23,86.27 728.46,182.11 1102.27,268.38 345.06,76.68 709.29,191.7 1063.93,201.29 67.09,0 76.68,-86.27 19.18,-115.02 -335.47,-134.2 -718.87,-162.95 -1073.51,-239.63 -364.23,-67.09 -718.87,-124.61 -1083.1,-191.7 -47.93,0 -67.09,67.09 -28.75,76.68z"/>
   <path id="SvgjsPath14120" class="fil0" d="M5338.01 12335.92c0,0 -824.31,268.38 -1255.62,565.51 -431.31,297.13 -536.76,958.49 -536.76,958.49 0,0 -220.45,-316.31 -431.33,182.11 -210.87,498.42 -172.53,536.76 -383.4,757.21 -220.45,220.45 -95.86,651.78 -19.18,757.21 0,0 -383.4,268.38 -805.13,383.4 -421.74,115.02 -987.25,402.57 -1159.78,632.61 -172.53,230.04 -920.15,1226.87 -536.76,3258.88l14722.48 0c0,0 0,-2012.84 -287.55,-2635.86 -287.55,-623.01 -738.04,-718.87 -738.04,-718.87 0,0 -939.33,-670.95 -1121.44,-785.97 -182.11,-115.02 -1054.35,-402.57 -1054.35,-402.57 0,0 -47.93,-402.57 -115.02,-690.12 -67.09,-287.54 -440.91,-776.38 -632.61,-805.13 -201.29,-38.34 -287.55,-268.38 -536.76,-670.95 -249.21,-402.57 -555.93,-623.02 -699.7,-670.95 -153.36,-47.93 -316.31,-19.18 -316.31,-19.18 0,0 115.02,853.06 115.02,1303.55 0,450.49 -86.27,738.04 -440.91,1169.37 -354.65,440.91 -584.68,555.93 -1092.69,891.4 -508,335.47 -603.85,517.59 -603.85,517.59 0,0 -306.72,-488.83 -843.47,-824.31 -536.76,-335.48 -709.26,-709.27 -1092.65,-1044.74 -383.4,-335.47 -105.43,-584.68 -134.2,-1073.51 -28.75,-488.83 0,-1035.17 0,-1035.17l0.01 0z"/>
   <path id="SvgjsPath14121" class="fil1" d="M14731.25 17157.15c-268.38,-584.68 -680.53,-738.04 -785.97,-766.8 -124.61,-86.27 -939.33,-670.95 -1111.85,-776.38 -172.53,-105.43 -814.72,-325.89 -1016.01,-392.99 -19.18,-124.61 -57.52,-412.15 -115.02,-632.61 -67.09,-287.55 -450.49,-833.89 -718.87,-872.23 -105.43,-19.18 -172.53,-124.61 -316.31,-373.81 -47.93,-76.68 -95.86,-153.36 -153.36,-249.21 -249.21,-402.57 -565.51,-651.78 -757.21,-709.29 -172.53,-57.52 -364.23,-19.18 -364.23,-19.18 -47.93,9.59 -86.27,57.52 -76.68,105.43 0,9.59 115.02,853.06 115.02,1293.96 0,402.57 -67.09,680.53 -412.15,1111.85 -287.55,364.23 -488.83,488.83 -862.65,728.46 -67.09,38.34 -134.2,86.27 -210.87,134.2 -297.13,201.29 -460.08,345.06 -546.34,440.91 -124.61,-172.53 -392.99,-488.83 -795.55,-738.04 -316.31,-201.29 -498.42,-421.74 -680.53,-632.61 -115.02,-134.2 -239.63,-277.97 -392.99,-421.74 -210.87,-182.11 -182.11,-325.89 -143.77,-546.34 28.75,-134.2 57.52,-277.97 38.34,-460.08 -28.75,-469.67 0,-1025.59 0,-1025.59 0,-28.75 -9.59,-57.52 -38.34,-86.27 -28.75,-19.18 -57.52,-28.75 -86.27,-19.18 -38.34,9.59 -843.47,277.97 -1284.39,584.68 -335.47,230.04 -479.25,642.19 -546.34,862.65 -38.34,-19.18 -76.68,-28.75 -124.61,-19.18 -134.2,9.59 -239.63,124.61 -335.47,345.06 -67.09,162.95 -115.02,277.97 -143.77,364.23 -67.09,182.11 -86.27,230.04 -220.45,364.23 -210.87,210.87 -162.95,594.27 -76.68,795.55 -124.61,76.68 -412.15,239.63 -699.7,325.89 -440.91,124.61 -1025.59,412.15 -1207.71,670.95l-9.59 19.18c-613.44,853.06 -795.55,1974.5 -536.76,3316.4 9.59,47.93 47.93,76.68 95.86,76.68l14722.5 0c57.52,0 95.86,-38.34 95.86,-95.86 0,-115.02 -9.59,-2070.35 -297.13,-2702.96l-0.01 0.01zm-3163.04 -2262.05c28.75,182.11 57.52,354.65 57.52,392.99 0,19.18 -9.59,76.68 -57.52,153.36 28.75,-172.53 19.18,-364.23 0,-546.34zm-1984.08 -1859.47c47.93,19.18 115.02,47.93 182.11,86.27 -19.18,9.59 -28.75,9.59 -47.93,9.59l-115.02 28.75c-19.18,-47.93 -19.18,-86.27 -19.18,-124.61l0.01 0zm-9.58 1198.11l143.77 0c-57.52,38.34 -124.61,95.86 -191.7,153.36 19.18,-47.93 38.34,-95.86 47.93,-153.36zm402.56 -297.13c-115.02,9.59 -249.21,38.34 -364.23,57.52 9.59,-47.93 9.59,-95.86 9.59,-143.77 124.61,-9.59 258.79,-28.75 373.81,-47.93 0,47.93 -9.59,95.86 -19.18,134.2l0.01 -0.01zm9.59 -479.24c9.59,47.93 9.59,86.27 9.59,124.61 -124.61,0 -258.79,38.34 -373.81,76.68 0,-47.93 0,-95.86 -9.59,-143.77 124.61,-19.18 258.79,-28.75 373.81,-57.52zm-364.23 345.06l0 -105.43c67.09,-19.18 134.2,-28.75 210.87,-38.34 57.52,-9.59 115.02,-9.59 172.53,-19.18l0 105.43c-124.61,0 -258.79,28.75 -383.4,57.52l-0.01 0zm-9.58 -335.48c0,-38.34 -9.59,-76.68 -9.59,-105.43 57.52,-9.59 105.43,-9.59 162.95,-19.18 57.52,-9.59 115.02,-19.18 162.95,-28.75 19.18,28.75 28.75,57.52 38.34,95.86 -115.02,0 -239.63,28.75 -354.65,57.52l0 -0.01zm182.11 -191.7c-57.52,9.59 -124.61,19.18 -182.11,38.34 0,-28.75 -9.59,-67.09 -9.59,-95.86 38.34,-9.59 86.27,-19.18 124.61,-28.75 28.75,-9.59 67.09,-9.59 95.86,-28.75l86.27 86.27c-47.93,9.59 -86.27,19.18 -115.02,28.75l-0.01 0zm-182.11 766.8c105.43,-9.59 230.04,-19.18 335.47,-38.34 -28.75,67.09 -86.27,124.61 -153.36,172.53 -67.09,0 -143.77,9.59 -210.87,9.59l28.75 -143.77 0.01 -0.01zm-4428.25 124.61c-115.02,-105.43 -220.45,-210.87 -258.79,-297.13 -9.59,-9.59 -9.59,-19.18 -9.59,-38.34 86.27,67.09 172.53,143.77 268.38,201.29 -9.59,47.93 -9.59,95.86 0,134.2l0 -0.01zm-47.93 -1044.76c28.75,38.34 67.09,67.09 105.43,95.86 0,38.34 0,86.27 9.59,124.61 -28.75,-19.18 -47.93,-38.34 -76.68,-57.52 -38.34,-28.75 -67.09,-57.52 -105.43,-86.27 9.59,-19.18 38.34,-47.93 67.09,-76.68zm28.75 -28.75c19.18,-19.18 38.34,-28.75 57.52,-38.34l0 95.86c-9.59,-19.18 -28.75,-38.34 -57.52,-57.52zm-134.18 143.77c38.34,38.34 76.68,67.09 115.02,95.86 28.75,28.75 57.52,57.52 95.86,76.68l0 95.86c-76.68,-67.09 -172.53,-134.2 -258.79,-191.7 19.18,-19.18 28.75,-47.93 47.93,-76.68l-0.01 -0.01zm-67.09 134.2c86.27,76.68 172.53,162.95 268.38,220.45 0,28.75 -9.59,57.52 -9.59,86.27 -38.34,-28.75 -86.27,-57.52 -134.2,-86.27 -57.52,-38.34 -115.02,-76.68 -162.95,-115.02 9.59,-38.34 28.75,-76.68 38.34,-105.43l0.01 0zm-47.93 143.77c47.93,38.34 105.43,76.68 153.36,115.02 47.93,38.34 95.86,76.68 153.36,105.43 0,19.18 -9.59,38.34 -9.59,47.93 0,9.59 -9.59,28.75 -9.59,38.34 -47.93,-28.75 -95.86,-57.52 -134.2,-86.27l-172.53 -115.02c0,-28.75 9.59,-67.09 19.18,-105.43l0.01 0zm258.79 460.08c-86.27,-76.68 -182.11,-143.77 -277.97,-201.29l0 -95.86c38.34,38.34 86.27,67.09 134.2,105.43 47.93,38.34 105.43,76.68 162.95,115.02 -9.59,19.18 -9.59,47.93 -19.18,76.68l0 0.01zm-2118.27 460.08c28.75,-86.27 76.68,-191.7 143.77,-354.65 86.27,-201.29 153.36,-220.45 172.53,-230.04 28.75,0 57.52,19.18 76.68,38.34 9.59,210.87 143.77,1255.62 1600.68,2060.76 19.18,9.59 28.75,9.59 47.93,9.59 28.75,0 67.09,-19.18 76.68,-47.93 9.59,19.18 19.18,47.93 28.75,67.09 9.59,9.59 28.75,9.59 28.75,-9.59 -19.18,-191.7 -57.52,-354.65 -28.75,-546.34 0,-19.18 -28.75,-38.34 -38.34,-9.59 -19.18,115.02 -38.34,239.63 -19.18,364.23l-9.59 -9.59c-9.59,-9.59 -19.18,-9.59 -28.75,-19.18 -28.75,-162.95 -47.93,-316.31 -38.34,-479.25 0,-28.75 -38.34,-28.75 -38.34,0 -19.18,143.77 -19.18,297.13 9.59,440.91 -38.34,-28.75 -86.27,-47.93 -124.61,-76.68 -19.18,-47.93 -28.75,-105.43 -38.34,-153.36 -19.18,-105.43 -9.59,-201.29 9.59,-297.13 0,-19.18 -28.75,-28.75 -28.75,-9.59 -28.75,124.61 -38.34,287.55 0,421.74 -38.34,-19.18 -67.09,-47.93 -95.86,-67.09 -9.59,-220.45 -19.18,-431.33 9.59,-651.78 0,-28.75 -38.34,-19.18 -38.34,0 -28.75,201.29 -38.34,402.57 -19.18,613.44 -57.52,-38.34 -115.02,-86.27 -162.95,-134.2 -9.59,-201.29 -9.59,-402.57 28.75,-613.44 0,-19.18 -19.18,-28.75 -28.75,-9.59 -47.93,191.7 -67.09,383.4 -57.52,575.1 -38.34,-38.34 -76.68,-76.68 -115.02,-105.43 0,-95.86 -9.59,-201.29 0,-297.13 9.59,-134.2 38.34,-268.38 76.68,-392.99 9.59,-19.18 -19.18,-28.75 -28.75,-9.59 -67.09,191.7 -124.61,431.33 -95.86,642.19 -38.34,-38.34 -67.09,-76.68 -105.43,-105.43 -19.18,-95.86 19.18,-306.72 19.18,-335.47 19.18,-134.2 47.93,-258.79 95.86,-383.4 9.59,-19.18 -19.18,-19.18 -28.75,-9.59 -76.68,220.45 -124.61,450.49 -134.2,680.53 -28.75,-28.75 -47.93,-57.52 -76.68,-95.86 9.59,-9.59 9.59,-19.18 9.59,-19.18 9.59,-9.59 -9.59,-28.75 -19.18,-19.18 19.18,-277.97 76.68,-555.93 172.53,-814.72 9.59,-19.18 -19.18,-28.75 -28.75,-9.59 -95.86,258.79 -162.95,527.17 -182.11,795.55 -28.75,-47.93 -57.52,-86.27 -86.27,-134.2 67.09,-268.38 105.43,-546.34 201.29,-814.72 9.59,-28.75 -28.75,-38.34 -38.34,-9.59 -86.27,239.63 -172.53,508 -191.7,766.8 -38.34,-57.52 -67.09,-115.02 -95.86,-172.53 67.09,-287.55 105.43,-555.93 239.63,-824.31 9.59,-19.18 -19.18,-38.34 -28.75,-19.18 -124.61,230.04 -230.04,508 -249.21,776.38 -28.75,-76.68 -57.52,-153.36 -76.68,-210.87 115.02,-268.38 182.11,-555.93 297.13,-824.31 9.59,-19.18 -19.18,-38.34 -28.75,-19.18 -115.02,239.63 -249.21,508 -297.13,766.8 -28.75,-134.2 -38.34,-220.45 -38.34,-249.21 115.02,-239.63 201.29,-488.83 316.31,-728.46 47.93,-57.52 105.43,-115.02 172.53,-162.95 316.31,-220.45 853.06,-421.74 1102.27,-508 0,95.86 -9.59,230.04 -9.59,373.81 -182.11,67.09 -335.47,220.45 -431.33,431.33 -105.43,239.63 -124.61,508 -47.93,680.53 105.43,230.04 498.42,517.59 833.89,747.63 28.75,19.18 47.93,28.75 57.52,38.34l143.77 172.53c191.7,220.45 383.4,460.08 728.46,670.95 508,316.31 805.13,785.97 805.13,785.97 19.18,28.75 47.93,47.93 86.27,47.93 28.75,0 67.09,-19.18 76.68,-47.93 0,0 105.43,-172.53 575.1,-488.83 76.68,-47.93 143.77,-95.86 210.87,-134.2 306.72,-201.29 517.59,-335.47 747.63,-594.27 19.18,0 38.34,-9.59 47.93,-28.75 9.59,-9.59 527.17,-584.68 795.55,-757.21 335.47,-230.04 373.81,-527.17 316.31,-939.33 -57.52,-412.15 -479.25,-565.51 -623.02,-603.85 -19.18,-124.61 -28.75,-230.04 -38.34,-306.72 47.93,0 115.02,0 182.11,19.18 134.2,47.93 412.15,249.21 651.78,632.61 57.52,86.27 105.43,172.53 143.77,249.21 0,0 0,9.59 9.59,9.59l-67.09 -67.09c-9.59,-9.59 -28.75,9.59 -19.18,19.18 67.09,76.68 124.61,162.95 191.7,239.63l0 9.59c0,0 28.75,105.43 28.75,277.97 -47.93,-76.68 -105.43,-153.36 -134.2,-239.63 -9.59,-19.18 -38.34,-9.59 -38.34,9.59 38.34,115.02 86.27,230.04 172.53,316.31 0,28.75 0,67.09 -9.59,105.43 -47.93,-67.09 -105.43,-124.61 -143.77,-182.11 -9.59,-19.18 -47.93,0 -28.75,19.18 47.93,67.09 86.27,134.2 134.2,201.29 9.59,19.18 19.18,28.75 28.75,47.93 -9.59,57.52 -19.18,115.02 -28.75,182.11 -47.93,-57.52 -95.86,-115.02 -134.2,-172.53 -9.59,-19.18 -38.34,9.59 -28.75,19.18 47.93,67.09 95.86,153.36 153.36,220.45 -9.59,47.93 -28.75,105.43 -57.52,162.95 -19.18,-38.34 -38.34,-86.27 -47.93,-124.61 -9.59,-19.18 -47.93,-9.59 -38.34,9.59 19.18,57.52 38.34,134.2 57.52,201.29 -19.18,47.93 -47.93,105.43 -86.27,153.36 -9.59,-28.75 -9.59,-57.52 -9.59,-86.27 0,-28.75 -38.34,-28.75 -38.34,0 0,47.93 9.59,105.43 9.59,153.36 -38.34,47.93 -76.68,105.43 -115.02,153.36 -9.59,-57.52 -19.18,-124.61 -28.75,-182.11 0,-19.18 -38.34,-19.18 -38.34,9.59 9.59,76.68 9.59,153.36 19.18,220.45 -38.34,38.34 -76.68,86.27 -115.02,124.61 0,-76.68 -9.59,-143.77 -19.18,-220.45 0,-28.75 -38.34,-28.75 -38.34,0 0,86.27 -9.59,182.11 0,277.97 -28.75,28.75 -57.52,57.52 -86.27,76.68 0,-19.18 0,-47.93 -9.59,-67.09 0,-76.68 -9.59,-143.77 -9.59,-210.87 0,-28.75 -38.34,-28.75 -38.34,0 0,76.68 0,143.77 9.59,210.87l0 115.02c-38.34,38.34 -86.27,67.09 -124.61,105.43 0,-19.18 -9.59,-38.34 -9.59,-67.09 0,-57.52 0,-105.43 9.59,-162.95 0,-28.75 -28.75,-38.34 -38.34,-9.59 -19.18,86.27 -38.34,191.7 -9.59,277.97 -28.75,28.75 -67.09,47.93 -95.86,76.68 0,-38.34 -9.59,-76.68 -9.59,-115.02 0,-28.75 -47.93,-28.75 -47.93,0l0 153.36c-38.34,28.75 -67.09,47.93 -105.43,76.68 0,-38.34 -9.59,-86.27 -9.59,-124.61 0,-28.75 -47.93,-28.75 -47.93,0 0,57.52 0,105.43 9.59,153.36 -38.34,28.75 -76.68,47.93 -105.43,67.09l0 -172.53c0,-28.75 -38.34,-28.75 -38.34,0 0,57.52 -9.59,105.43 -9.59,162.95l0 47.93c-38.34,19.18 -67.09,38.34 -105.43,57.52l0 -134.2c0,-28.75 -38.34,-19.18 -38.34,0 -9.59,47.93 -9.59,105.43 -9.59,153.36 -19.18,9.59 -47.93,19.18 -67.09,28.75 -9.59,0 -9.59,0 -9.59,9.59 0,-38.34 9.59,-67.09 9.59,-105.43 0,-19.18 -38.34,-19.18 -38.34,0 -9.59,38.34 -9.59,76.68 -19.18,124.61 -28.75,9.59 -67.09,28.75 -95.86,38.34l0 -124.61c0,-19.18 -38.34,-19.18 -38.34,0 0,47.93 -9.59,95.86 -19.18,143.77 -47.93,19.18 -95.86,38.34 -134.2,47.93l0 -95.86c0,-28.75 -38.34,-28.75 -38.34,0 0,38.34 -9.59,76.68 -9.59,115.02 -28.75,9.59 -57.52,19.18 -76.68,28.75 0,-38.34 9.59,-67.09 9.59,-105.43 0,-19.18 -38.34,-28.75 -38.34,-9.59 -9.59,38.34 -9.59,86.27 -19.18,124.61 -19.18,9.59 -38.34,9.59 -38.34,9.59 -47.93,19.18 -76.68,67.09 -67.09,115.02 9.59,38.34 47.93,67.09 95.86,67.09l28.8 0.05c9.59,0 143.77,-47.93 421.74,-153.36l0 9.59c0,19.18 28.75,9.59 28.75,0 0,-9.59 0,-9.59 9.59,-19.18 38.34,-9.59 67.09,-28.75 105.43,-38.34 354.65,-143.77 1303.55,-795.55 1562.34,-1437.75 143.77,-345.06 162.95,-661.36 153.36,-862.65 38.34,19.18 76.68,38.34 115.02,38.34 134.2,19.18 479.25,440.91 555.93,709.29 -9.59,0 -19.18,9.59 -19.18,19.18 28.75,306.72 9.59,613.44 19.18,910.57 -19.18,19.18 -38.34,47.93 -57.52,67.09l0 -833.89c0,-19.18 -38.34,-19.18 -38.34,0 -9.59,297.13 -19.18,594.27 -19.18,891.4l-47.93 47.93c0,-230.04 -28.75,-460.08 -38.34,-690.12 0,-19.18 -38.34,-28.75 -38.34,0 9.59,249.21 -9.59,498.42 19.18,747.63 -19.18,9.59 -38.34,28.75 -47.93,38.34 9.59,-191.7 0,-392.99 -9.59,-584.68 0,-19.18 -38.34,-19.18 -38.34,0 -9.59,210.87 -38.34,431.33 -28.75,642.19 -19.18,19.18 -47.93,28.75 -67.09,47.93 19.18,-191.7 9.59,-383.4 0,-575.1 0,-19.18 -38.34,-19.18 -38.34,0 0,201.29 -19.18,412.15 -28.75,613.44 -38.34,19.18 -86.27,47.93 -134.2,67.09 19.18,-182.11 0,-373.81 0,-555.93 0,-28.75 -38.34,-28.75 -38.34,0 -9.59,191.7 -28.75,392.99 -19.18,584.68 -38.34,19.18 -76.68,38.34 -124.61,57.52 19.18,-124.61 19.18,-258.79 28.75,-383.4 0,-28.75 -38.34,-28.75 -38.34,0 -19.18,134.2 -47.93,277.97 -57.52,412.15 -38.34,19.18 -86.27,38.34 -124.61,47.93 19.18,-134.2 19.18,-277.97 57.52,-412.15 9.59,-28.75 -38.34,-38.34 -38.34,-9.59 -28.75,134.2 -76.68,297.13 -86.27,450.49 -47.93,19.18 -86.27,28.75 -134.2,47.93 9.59,-115.02 0,-249.21 9.59,-364.23 0,-28.75 -38.34,-28.75 -38.34,0 -9.59,115.02 -38.34,258.79 -28.75,383.4 -57.52,19.18 -124.61,38.34 -182.11,67.09 0,-38.34 0,-86.27 9.59,-124.61 9.59,-86.27 28.75,-162.95 57.52,-239.63 9.59,-19.18 -28.75,-28.75 -38.34,-9.59 -47.93,115.02 -95.86,258.79 -95.86,392.99l-86.27 28.75 0 -9.59c9.59,-67.09 9.59,-134.2 0,-201.29 0,-28.75 -47.93,-28.75 -47.93,0 0,67.09 0,124.61 -9.59,191.7 0,9.59 -9.59,28.75 -9.59,47.93 -38.34,9.59 -76.68,28.75 -115.02,38.34 9.59,-57.52 9.59,-115.02 9.59,-172.53 0,-28.75 -38.34,-28.75 -47.93,0 -9.59,57.52 -19.18,124.61 -28.75,191.7 -47.93,9.59 -95.86,28.75 -143.77,47.93l0 -95.86c0,-28.75 -47.93,-28.75 -38.34,0l0 115.02c-47.93,19.18 -95.86,28.75 -143.77,47.93 9.59,-47.93 28.75,-105.43 38.34,-153.36 9.59,-28.75 -28.75,-38.34 -38.34,-9.59 -19.18,57.52 -38.34,124.61 -57.52,182.11 -38.34,9.59 -76.68,19.18 -115.02,38.34 9.59,-57.52 19.18,-105.43 28.75,-153.36 9.59,-28.75 -38.34,-38.34 -38.34,-9.59 -19.18,57.52 -38.34,124.61 -47.93,182.11 -19.18,9.59 -38.34,9.59 -57.52,19.18 9.59,-38.34 19.18,-86.27 38.34,-124.61 9.59,-19.18 -28.75,-38.34 -38.34,-9.59 -19.18,47.93 -38.34,95.86 -57.52,153.36 -19.18,9.59 -28.75,9.59 -47.93,9.59 0,-19.18 9.59,-38.34 9.59,-57.52 9.59,-19.18 -28.75,-28.75 -28.75,-9.59 -9.59,28.75 -19.18,47.93 -28.75,76.68 -47.93,9.59 -86.27,28.75 -124.61,38.34 0,-9.59 -19.18,-19.18 -28.75,0 0,9.59 -9.59,9.59 -9.59,9.59 -76.68,19.18 -153.36,38.34 -210.87,57.52 -153.36,38.34 -258.79,76.68 -297.13,86.27 -28.75,9.59 -115.02,19.18 -230.04,19.18 -19.18,-124.61 -57.52,-258.79 -143.77,-460.08 -19.18,-47.93 -76.68,-67.09 -124.61,-47.93 -47.93,19.16 -67.09,76.68 -47.93,124.61 76.68,162.95 105.43,277.97 124.61,373.81l-239.57 0.02c-28.75,-38.34 -57.52,-67.09 -95.86,-95.86 -19.18,-19.18 -47.93,9.59 -28.75,28.75l67.09 67.09 -115.02 0.01c-19.18,-19.18 -38.34,-47.93 -57.52,-67.09 -38.34,-57.52 -67.09,-115.02 -86.27,-182.11 -9.59,-28.75 -47.93,-19.18 -38.34,9.59 19.18,76.68 57.52,162.95 105.43,239.63 -38.34,0 -86.27,0 -124.61,-9.59 -9.59,-172.53 -9.59,-335.47 -9.59,-421.74 0,-57.52 -38.34,-95.86 -95.86,-95.86 -57.52,0 -95.86,38.34 -95.86,95.86 0,38.34 0,210.87 9.59,412.15l-19.14 0c-28.75,-38.34 -67.09,-76.68 -86.27,-124.61 -38.34,-67.09 -57.52,-143.77 -67.09,-220.45 0,-19.18 -38.34,-28.75 -38.34,0 9.59,105.43 38.34,249.21 115.02,335.47 -47.93,0 -86.27,-9.59 -134.2,-9.59 -19.18,-38.34 -47.93,-86.27 -67.09,-124.61 -28.75,-67.09 -47.93,-143.77 -47.93,-220.45 0,-19.18 -38.34,-28.75 -38.34,0 0,105.43 28.75,249.21 95.86,345.06 -28.75,0 -47.93,0 -76.68,-9.59 -19.18,-57.52 -67.09,-105.43 -86.27,-162.95 -28.75,-67.09 -38.34,-134.2 -38.34,-201.29 0,-28.75 -38.34,-28.75 -38.34,0 -9.59,105.43 19.18,277.97 105.43,364.23 -38.34,0 -76.68,-9.59 -124.61,-9.59 -28.75,-57.52 -76.68,-115.02 -105.43,-172.53 -28.75,-76.68 -47.93,-153.36 -47.93,-230.04 0,-28.75 -38.34,-28.75 -38.34,0 0,124.61 28.75,297.13 124.61,392.99 -57.52,-9.59 -115.02,-9.59 -172.53,-19.18 -28.75,-38.34 -47.93,-86.27 -67.09,-134.2 -28.75,-76.68 -38.34,-153.36 -47.93,-230.04 0,-28.75 -47.93,-28.75 -38.34,0 0,115.02 28.75,249.21 86.27,354.65 -38.34,-9.59 -86.27,-9.59 -124.61,-19.18 -19.18,-38.34 -47.93,-86.27 -67.09,-134.2 -28.75,-76.68 -47.93,-143.77 -47.93,-220.45 0,-28.75 -38.34,-28.75 -38.34,0 9.59,115.02 28.75,239.63 95.86,345.06 -47.93,-9.59 -86.27,-9.59 -124.61,-19.18 -38.34,-57.52 -76.68,-105.43 -95.86,-162.95 -38.34,-76.68 -57.52,-162.95 -76.68,-249.21 0,-19.18 -38.34,-9.59 -28.75,9.59 9.59,124.61 47.93,287.55 124.61,392.99 -67.09,-9.59 -124.61,-28.75 -172.53,-38.34 -95.86,-134.2 -172.53,-258.79 -210.87,-431.33 -9.59,-19.18 -28.75,-9.59 -28.75,9.59 19.18,134.2 76.68,277.97 162.95,392.99 -19.18,-9.59 -47.93,-19.18 -57.52,-28.75 -28.75,-19.18 -76.68,-38.34 -124.61,-57.52 -67.09,-143.77 -134.2,-287.55 -172.53,-450.49 -9.59,-28.75 -47.93,-19.18 -38.34,9.59 19.18,134.2 57.52,277.97 124.61,392.99 -28.75,-9.59 -67.09,-28.75 -95.86,-38.34 -76.68,-153.36 -153.36,-287.55 -182.11,-469.67 0,-19.18 -38.34,-19.18 -38.34,9.59 19.18,143.77 57.52,306.72 134.2,431.33 -28.75,-9.59 -57.52,-19.18 -86.27,-38.34 -38.34,-76.68 -76.68,-143.77 -105.43,-210.87 -38.34,-105.43 -67.09,-210.87 -76.68,-316.31 0,-28.75 -47.93,-19.18 -47.93,9.59 19.18,153.36 57.52,345.06 143.77,488.83l-143.77 -57.52c-28.75,-67.09 -67.09,-124.61 -95.86,-191.7 -38.34,-86.27 -67.09,-182.11 -86.27,-277.97 -9.59,-28.75 -47.93,-19.18 -38.34,9.59 28.75,134.2 67.09,306.72 153.36,431.33 -19.18,-9.59 -38.34,-9.59 -47.93,-19.18 -47.93,-19.18 -95.86,-38.34 -153.36,-57.52 -86.27,-143.77 -143.77,-287.55 -172.53,-460.08 0,-19.18 -38.34,-19.18 -38.34,9.59 0,143.77 47.93,297.13 124.61,421.74 -67.09,-28.75 -134.2,-57.52 -201.29,-76.68 -76.68,-162.95 -143.77,-325.89 -162.95,-508 0,-28.75 -38.34,-28.75 -38.34,0 9.59,162.95 47.93,335.47 124.61,479.25 -38.34,-19.18 -76.68,-28.75 -115.02,-47.93 -47.93,-76.68 -95.86,-143.77 -134.2,-230.04 -47.93,-115.02 -76.68,-239.63 -86.27,-364.23 0,-28.75 -38.34,-28.75 -38.34,0 9.59,182.11 57.52,392.99 162.95,555.93 -57.52,-28.75 -124.61,-47.93 -182.11,-76.68 -115.02,-201.29 -201.29,-383.4 -210.87,-632.61 0,-28.75 -38.34,-28.75 -38.34,0 0,201.29 47.93,421.74 153.36,584.68 -47.93,-19.18 -105.43,-47.93 -153.36,-67.09 -124.61,-220.45 -201.29,-431.33 -191.7,-690.12 0,-28.75 -38.34,-28.75 -38.34,0 -19.18,220.45 28.75,460.08 153.36,651.78 -28.75,-19.18 -67.09,-28.75 -95.86,-47.93 -124.61,-258.79 -210.87,-498.42 -210.87,-785.97 0,-28.75 -38.34,-28.75 -38.34,0 -9.59,258.79 47.93,536.76 182.11,757.21 -67.09,-38.34 -124.61,-67.09 -182.11,-95.86 -153.36,-230.04 -210.87,-460.08 -191.7,-757.21l0 -9.59c76.68,-182.11 105.43,-258.79 182.11,-450.49l0.06 0.06zm-316.29 508c-28.75,201.29 19.18,421.74 124.61,603.85 -28.75,-19.18 -57.52,-38.34 -76.68,-57.52 -57.52,-67.09 -143.77,-354.65 -47.93,-546.34l0 0.01zm-1658.2 1466.49c28.75,86.27 76.68,239.63 134.2,440.91 -67.09,-28.75 -143.77,-47.93 -201.29,-86.27 -67.09,-38.34 -124.61,-95.86 -172.53,-153.36 47.93,-67.09 134.2,-134.2 239.63,-201.29zm-268.38 239.63c105.43,124.61 258.79,239.63 421.74,249.21 19.18,76.68 47.93,162.95 67.09,258.79l-9.59 -9.59c-230.04,-86.27 -421.74,-172.53 -594.27,-325.89l115.02 -172.53 0.01 0.01zm-594.26 2626.28c335.47,210.87 738.04,392.99 1131.03,460.08l-1063.94 0c-28.75,-153.36 -47.93,-306.72 -67.09,-460.08zm1236.45 460.08c0,-9.59 0,-19.18 -9.59,-28.75 -431.33,-143.77 -824.31,-277.97 -1226.87,-488.83 -9.59,-86.27 -9.59,-182.11 -19.18,-268.38 440.91,258.79 958.49,488.83 1456.91,584.68 19.18,0 28.75,-19.18 9.59,-28.75 -488.83,-210.87 -977.67,-402.57 -1466.5,-623.02l0 -277.97c335.47,239.63 728.46,431.33 1140.6,517.59 28.75,9.59 38.34,-38.34 9.59,-47.93 -402.57,-153.36 -785.97,-306.72 -1150.19,-527.17 0,-115.02 9.59,-220.45 28.75,-325.89 277.97,162.95 565.51,297.13 872.23,383.4 28.75,9.59 38.34,-38.34 9.59,-47.93 -297.13,-124.61 -594.27,-249.21 -881.81,-392.99 9.59,-86.27 28.75,-172.53 38.34,-249.21 287.55,230.04 632.61,421.74 996.83,479.25 19.18,0 28.75,-19.18 9.59,-28.75 -354.65,-143.77 -680.53,-297.13 -996.83,-498.42l57.52 -230.04c268.38,182.11 555.93,364.23 862.65,450.49 19.18,9.59 28.75,-19.18 9.59,-28.75 -287.55,-162.95 -575.1,-297.13 -853.06,-469.67 28.75,-86.27 47.93,-162.95 86.27,-239.63 230.04,172.53 508,297.13 795.55,345.06 28.75,0 38.34,-28.75 9.59,-38.34 -277.97,-95.86 -536.76,-210.87 -785.97,-364.23 19.18,-57.52 47.93,-115.02 76.68,-172.53 210.87,191.7 469.67,345.06 747.63,373.81 19.18,0 19.18,-19.18 0,-28.75 -268.38,-105.43 -508,-210.87 -728.46,-392.99 38.34,-67.09 67.09,-134.2 105.43,-201.29 162.95,172.53 392.99,297.13 623.02,316.31 9.59,0 9.59,0 19.18,-9.59 134.2,565.51 297.13,1418.57 392.99,2559.18l-239.64 0.02zm431.33 0c-162.95,-2022.43 -536.76,-3143.86 -632.6,-3421.83 210.87,-115.02 469.67,-220.45 670.95,-277.97 335.47,-95.86 642.19,-277.97 776.38,-354.65 316.31,239.63 1131.03,565.51 1782.8,824.31 364.23,143.77 690.12,268.38 824.31,345.06 230.04,124.61 987.25,210.87 1686.95,249.21 19.18,143.77 38.34,277.97 67.09,364.23 67.09,182.11 47.93,316.31 -19.18,718.87l-28.75 172.53c-28.75,182.11 -67.09,325.89 -105.43,460.08 -67.09,249.21 -124.61,440.91 -19.18,651.78 19.18,38.34 47.93,57.52 86.27,57.52 9.59,0 28.75,0 38.34,-9.59 47.93,-19.18 67.09,-76.68 47.93,-124.61 -76.68,-153.36 -28.75,-287.55 28.75,-517.59 38.34,-124.61 76.68,-287.55 115.02,-479.25l28.75 -172.53c67.09,-412.15 95.86,-584.68 9.59,-814.72 -19.18,-57.52 -38.34,-172.53 -57.52,-287.55 220.45,9.59 431.33,19.18 613.44,19.18 0,47.93 -9.59,105.43 -9.59,162.95 -9.59,67.09 -9.59,143.77 -19.18,230.04 -19.18,421.74 76.68,958.49 86.27,1044.76l-19.18 862.65c0,57.52 38.34,95.86 95.86,95.86 47.93,0 95.86,-38.34 95.86,-95.86l19.18 -872.23 0 -19.18c0,-9.59 -105.43,-575.1 -86.27,-1006.42 0,-86.27 9.59,-162.95 19.18,-230.04 9.59,-67.09 9.59,-124.61 9.59,-182.11 143.77,0 239.63,-9.59 277.97,-28.75 38.34,-9.59 143.77,-38.34 287.55,-86.27 230.04,-67.09 546.34,-153.36 881.81,-258.79 9.59,9.59 28.75,9.59 38.34,0l9.59 -9.59c651.78,-201.29 1380.23,-440.91 1696.54,-651.78 421.74,-277.97 565.51,-527.17 613.44,-670.95 287.55,95.86 805.13,277.97 939.33,364.23 153.36,95.86 872.23,613.44 1063.93,747.63 -57.52,306.72 -316.31,1754.04 -277.97,3220.54l-11636.11 -19.18 -0.05 0zm11818.23 -124.61c86.27,47.93 172.53,86.27 268.38,124.61l-258.8 0c0,-38.34 0,-86.27 -9.59,-124.61l0.01 0zm421.74 124.61c-134.2,-67.09 -277.97,-134.2 -421.74,-182.11l0 -297.13c268.38,191.7 575.1,335.47 891.4,383.4 28.75,0 38.34,-38.34 9.59,-38.34 -325.89,-105.43 -623.02,-220.45 -900.99,-402.57 0,-105.43 9.59,-201.29 9.59,-306.72 249.21,115.02 508,230.04 766.8,306.72 19.18,9.59 38.34,-28.75 19.18,-38.34 -249.21,-124.61 -517.59,-230.04 -776.38,-325.89 9.59,-105.43 9.59,-201.29 19.18,-297.13 220.45,143.77 460.08,268.38 709.29,345.06 19.18,9.59 38.34,-28.75 19.18,-38.34 -249.21,-115.02 -488.83,-220.45 -728.46,-364.23 9.59,-86.27 9.59,-172.53 19.18,-258.79 172.53,162.95 450.49,258.79 680.53,268.38 19.18,0 28.75,-28.75 9.59,-38.34 -134.2,-38.34 -268.38,-76.68 -402.57,-134.2 -95.86,-47.93 -182.11,-105.43 -277.97,-162.95 9.59,-86.27 19.18,-162.95 19.18,-249.21 201.29,115.02 402.57,239.63 613.44,316.31 19.18,9.59 28.75,-19.18 9.59,-28.75 -191.7,-134.2 -412.15,-230.04 -623.02,-325.89 9.59,-105.43 19.18,-201.29 38.34,-287.55 153.36,105.43 306.72,210.87 469.67,297.13 19.18,9.59 28.75,-9.59 9.59,-19.18 -153.36,-115.02 -316.31,-220.45 -479.25,-306.72 28.75,-220.45 57.52,-412.15 76.68,-575.1 95.86,86.27 191.7,172.53 297.13,239.63 19.18,9.59 38.34,-9.59 19.18,-28.75 -86.27,-95.86 -201.29,-182.11 -306.72,-258.79 19.18,-134.2 38.34,-239.63 57.52,-306.72 134.2,67.09 392.99,230.04 575.1,632.61 239.63,517.59 268.38,2099.1 277.97,2501.67l-699.7 -19.18 -0.04 0.02zm-220.46 -2482.5c-28.75,-9.59 -38.34,19.18 -19.18,38.34 115.02,86.27 239.63,182.11 364.23,230.04 19.18,9.59 47.93,-19.18 28.75,-38.34 -115.02,-95.86 -249.21,-172.53 -373.81,-230.04zm-8377.23 -1169.37c-9.59,-76.68 -38.34,-153.36 -57.52,-239.63 -19.18,-95.86 -19.18,-182.11 -9.59,-277.97 0,-28.75 -38.34,-28.75 -38.34,0 -19.18,162.95 -9.59,383.4 76.68,527.17 9.59,19.18 28.75,9.59 28.75,-9.59l0.01 0.01zm182.11 86.27c9.59,-153.36 -28.75,-325.89 -47.93,-479.25 0,-28.75 -38.34,-28.75 -38.34,0 9.59,162.95 9.59,335.47 47.93,488.83 9.59,19.18 38.34,9.59 38.34,-9.59l0 0.01zm115.02 9.59c9.59,-124.61 -28.75,-258.79 -47.93,-392.99 0,-19.18 -28.75,-9.59 -28.75,9.59 9.59,124.61 9.59,268.38 47.93,392.99 0,19.18 28.75,9.59 28.75,-9.59zm191.7 95.84c-19.18,-143.77 -76.68,-268.38 -95.86,-412.15 0,-28.75 -38.34,-28.75 -38.34,0 9.59,134.2 28.75,306.72 105.43,421.74 9.59,19.18 28.75,9.59 28.75,-9.59l0.01 0zm201.29 19.18c9.59,9.59 19.18,-9.59 9.59,-19.18 -28.75,-28.75 -57.52,-57.52 -76.68,-95.86 -19.18,-38.34 -38.34,-76.68 -38.34,-115.02 0,-28.75 -47.93,-19.18 -38.34,9.59 0,86.27 47.93,191.7 143.77,220.45l0 0.01zm230.04 67.09c9.59,9.59 28.75,0 28.75,-19.18 -38.34,-86.27 -105.43,-172.53 -162.95,-249.21 -19.18,-19.18 -57.52,0 -38.34,19.18 57.52,86.27 105.43,172.53 172.53,249.21zm1821.14 28.75c19.18,-47.93 19.18,-115.02 19.18,-172.53 0,-19.18 -38.34,-19.18 -38.34,0 -9.59,57.52 -28.75,115.02 -9.59,172.53 9.59,9.59 28.75,9.59 28.75,0zm124.6 -38.34c19.18,-38.34 19.18,-76.68 28.75,-115.02 9.59,-47.93 19.18,-86.27 28.75,-134.2 9.59,-28.75 -28.75,-38.34 -38.34,-9.59l-28.75 143.77c-9.59,38.34 -19.18,76.68 -9.59,115.02 -9.59,9.59 9.59,19.18 19.18,0l0 0.01z"/>
   <path id="SvgjsPath13689" class="fil0" d="M3545.62 6326.16c0,0 -239.63,-230.04 -517.59,-335.47 -277.97,-105.43 -584.68,67.09 -680.53,354.65 -95.86,277.97 124.61,1447.32 479.25,1869.06 354.65,421.74 594.27,460.08 833.89,239.63 249.21,-230.04 670.95,-1035.17 -115.02,-2127.86z"/>
   <path id="SvgjsPath13690" class="fil1" d="M3344.34 8674.47c-182.11,-9.59 -364.23,-143.77 -584.68,-402.57 -373.81,-450.49 -603.85,-1639.02 -498.42,-1964.92 57.52,-172.53 182.11,-316.31 345.06,-392.99 143.77,-67.09 306.72,-76.68 460.08,-19.18 297.13,115.02 536.76,345.06 546.34,354.65l9.59 9.59c833.89,1169.37 335.47,2032.01 105.43,2252.46 -115.02,105.43 -230.04,153.36 -354.65,153.36 -9.59,9.59 -19.18,9.59 -28.75,9.59l0 0.01zm-345.06 -2597.52c-124.61,-47.93 -239.63,-19.18 -306.72,9.59 -115.02,57.52 -201.29,153.36 -249.21,277.97 -76.68,239.63 124.61,1370.64 469.67,1773.22 182.11,220.45 325.89,325.89 450.49,335.47 76.68,9.59 153.36,-28.75 239.63,-105.43 201.29,-182.11 623.02,-939.33 -124.61,-1984.08 -38.34,-28.75 -249.21,-210.87 -479.25,-306.72l0.01 -0.01z"/>
   <path id="SvgjsPath13691" class="fil1" d="M2711.74 6287.83c316.31,57.52 517.59,584.68 575.1,939.33 9.59,9.59 9.59,19.18 19.18,28.75 38.34,57.52 -38.34,115.02 -76.68,57.52 -47.93,-76.68 -95.86,-153.36 -172.53,-182.11 -134.2,-47.93 -201.29,105.43 -172.53,249.21 38.34,182.11 153.36,287.55 249.21,421.74 9.59,9.59 0,28.75 -9.59,19.18 -162.95,-95.86 -412.15,-460.08 -297.13,-690.12 86.27,-162.95 220.45,-134.2 325.89,-38.34 -76.68,-201.29 -134.2,-412.15 -287.55,-565.51 -47.93,-47.93 -143.77,-134.2 -210.87,-124.61 -124.61,19.18 -124.61,201.29 -124.61,325.89 -9.59,162.95 9.59,325.89 38.34,479.25 0,19.18 -19.18,19.18 -28.75,9.59 -57.52,-230.04 -191.7,-996.83 172.53,-929.74l0 -0.04z"/>
   <path id="SvgjsPath13692" class="fil0" d="M11424.44 6326.16c0,0 239.63,-230.04 517.59,-335.47 277.97,-105.43 584.68,67.09 680.53,354.65 95.86,277.97 -124.61,1447.32 -479.25,1869.06 -354.65,421.74 -594.27,460.08 -833.89,239.63 -249.21,-230.04 -670.95,-1035.17 115.02,-2127.86z"/>
   <path id="SvgjsPath13693" class="fil1" d="M11596.97 8674.47c-124.61,0 -239.63,-47.93 -354.65,-153.36 -239.63,-210.87 -728.46,-1083.1 105.43,-2252.46l9.59 -9.59c9.59,-9.59 258.79,-239.63 546.34,-354.65 143.77,-57.52 306.72,-47.93 460.08,19.18 162.95,76.68 287.55,220.45 345.06,392.99 105.43,316.31 -124.61,1514.43 -498.42,1964.92 -220.45,258.79 -402.57,392.99 -584.68,402.57 -9.59,-9.59 -19.18,-9.59 -28.75,-9.59l0 -0.01zm-105.43 -2290.8c-747.63,1044.76 -325.89,1801.97 -124.61,1984.08 86.27,76.68 162.95,115.02 239.63,105.43 124.61,-9.59 268.38,-115.02 450.49,-335.47 335.47,-402.57 546.34,-1543.18 469.67,-1773.22 -38.34,-124.61 -134.2,-230.04 -249.21,-277.97 -67.09,-28.75 -182.11,-57.52 -306.72,-9.59 -230.04,95.86 -440.91,277.97 -479.25,306.72l0.01 0.01z"/>
   <path id="SvgjsPath13694" class="fil1" d="M12258.34 6287.83c-316.31,57.52 -517.59,584.68 -575.1,939.33 -9.59,9.59 -9.59,19.18 -19.18,28.75 -38.34,57.52 38.34,115.02 76.68,57.52 47.93,-76.68 95.86,-153.36 172.53,-182.11 134.2,-47.93 201.29,105.43 172.53,249.21 -38.34,182.11 -153.36,287.55 -249.21,421.74 -9.59,9.59 0,28.75 9.59,19.18 162.95,-95.86 412.15,-460.08 297.13,-690.12 -86.27,-162.95 -220.45,-134.2 -325.89,-38.34 76.68,-201.29 134.2,-412.15 287.55,-565.51 47.93,-47.93 143.77,-134.2 210.87,-124.61 124.61,19.18 124.61,201.29 124.61,325.89 9.59,162.95 -9.59,325.89 -38.34,479.25 0,19.18 19.18,19.18 28.75,9.59 57.52,-230.04 191.7,-996.83 -172.53,-929.74l0 -0.04z"/>
   <path id="SvgjsPath13199" class="fil0" d="M11549.05 4006.61c-220.45,-1092.69 -1447.32,-2760.46 -4064.01,-2760.46 -2616.69,0 -3488.92,1284.39 -3872.32,2233.29 -239.63,594.27 -306.72,1456.91 -325.89,1888.24 0,0 373.81,4188.62 584.68,4687.04 335.47,795.55 2722.12,2693.37 3402.65,2712.54 843.47,19.18 3230.13,-1974.5 3584.76,-2674.2 345.06,-699.7 833.89,-4725.38 833.89,-4725.38 -9.59,-306.72 -38.34,-853.06 -143.77,-1361.07l0.01 0z"/>
   <path id="SvgjsPath13200" class="fil1" d="M7283.75 12882.26l-9.58 0c-718.87,-19.18 -3134.27,-1936.16 -3498.51,-2779.64 -220.45,-508 -584.68,-4552.84 -594.27,-4725.38l0 -19.18c19.18,-460.08 86.27,-1322.73 325.89,-1926.58 632.61,-1552.77 1926.58,-2300.39 3977.75,-2300.39 1178.94,0 2223.71,345.06 3000.09,996.83 603.85,498.42 1044.76,1198.12 1169.37,1849.9 105.43,527.17 124.61,1092.69 134.2,1380.23l0 19.18c-19.18,162.95 -488.83,4054.43 -843.47,4763.72 -172.53,354.65 -843.47,1025.59 -1629.45,1639.02 -421.74,335.47 -1456.91,1102.27 -2032.01,1102.27l-0.01 0.01zm-3891.48 -7514.59c105.43,1169.37 412.15,4255.71 584.68,4648.7 316.31,757.21 2664.62,2635.86 3297.22,2645.44l9.58 0c345.06,0 1073.51,-402.57 1897.82,-1044.76 747.63,-584.68 1408.98,-1246.05 1571.93,-1571.93 325.89,-661.36 795.55,-4485.75 814.72,-4677.45 0,-287.55 -28.75,-833.89 -134.2,-1341.89 -124.61,-613.44 -536.76,-1255.62 -1102.27,-1725.29 -738.04,-623.02 -1725.29,-948.91 -2865.89,-948.91 -1945.74,0 -3182.2,709.29 -3776.46,2166.2 -210.87,575.1 -277.97,1408.98 -297.13,1849.9l-0.01 -0.01z"/>
   <path id="SvgjsPath13393" class="fil1" d="M9125.02 9914.77c-32.59,-17.26 -57.52,-40.26 -74.76,-72.85 -33.55,-60.39 -126.53,-6.71 -92.97,54.63 4.79,8.62 11.51,15.34 17.26,23 -0.95,0 -1.92,0 -2.87,0.95 -219.27,103.26 -449.85,185.17 -685.33,242.59 -4.72,-1.42 -9.6,-2.09 -14.49,-2.09 -3.5,0 -7.02,0.35 -10.46,1.03 -225.24,44.09 -446.66,16.29 -673.83,13.42 -70.93,-0.95 -151.44,1.92 -176.36,63.26 -68.06,-84.35 -181.16,-72.85 -291.38,-73.81 -192.65,-0.95 -386.27,0.95 -578.94,-0.95l-2.85 0.02c-176.36,-43.13 -348.9,-99.68 -518.55,-168.69l-2.87 -2.87c2.87,-16.29 0,-33.55 -13.42,-46.96 -19.18,-19.18 -57.52,-22.05 -75.73,0 -28.75,33.55 -56.55,67.09 -85.3,100.64 -19.18,22.05 -22.05,54.63 0,75.73 19.18,19.18 57.52,22.05 75.73,0 11.51,-13.42 23,-26.84 33.55,-40.26 1.92,0.95 2.87,2.87 4.79,3.84l0.95 -0.01c273.17,273.17 539.63,558.81 826.22,818.55 232.91,211.83 508,218.54 810.88,207.99 325.89,-12.46 571.27,-132.28 804.18,-360.39 237.71,-232.91 459.12,-487.87 664.24,-750.51 2.87,0.95 3.84,3.84 6.71,4.79 25.88,13.42 58.47,6.71 73.81,-19.18 15.34,-22.05 7.67,-58.47 -18.21,-71.89l0 0.02zm-2921.49 263.58c865.52,292.34 1812.51,258.79 2657.91,-92.97 -128.44,154.31 -263.58,302.89 -400.65,448.58 -615.36,240.58 -1270.96,234.83 -1891.11,1.92 -1.92,-0.95 -2.87,0.95 -4.79,0 -120.77,-118.86 -240.58,-237.71 -361.35,-357.52l0 -0.01zm2152.77 463.91l-5.75 -11.51c8.62,-2.87 18.21,-5.75 26.84,-9.59l-21.08 21.08 -0.01 0.01zm-47.93 46.97c-6.71,-12.46 -14.38,-25.88 -21.08,-38.34 3.84,-0.95 7.67,-1.92 11.51,-3.84l0 1.92c5.75,10.54 10.54,22.05 16.29,32.59 -1.92,2.87 -3.84,5.75 -6.71,7.67zm-85.3 73.79c-18.21,-25.88 -36.42,-52.72 -54.63,-78.6 6.71,-1.92 14.38,-2.87 21.08,-4.79l37.39 80.52c-1.92,0.95 -2.87,1.92 -3.84,2.87zm-62.31 46.01l-98.73 -98.73 49.85 -11.51c23,32.59 45.05,65.18 68.06,97.76 -6.71,3.84 -12.46,7.67 -19.18,12.46l0 0.01zm-79.55 51.77c-29.72,-46.01 -59.42,-92.02 -88.19,-138.02l17.26 -2.87c-0.95,6.71 0.95,14.38 7.67,21.08l99.68 99.68c-12.46,6.71 -24.92,13.42 -36.42,20.13zm-69.01 38.34c-28.75,-54.63 -58.47,-109.27 -87.22,-164.87 3.84,-0.95 7.67,-0.95 11.51,-1.92l0 0.95 97.76 152.41c-7.67,5.75 -14.38,10.54 -22.05,13.42l0 0.01zm-51.76 23c-42.18,-55.6 -77.63,-115.02 -108.31,-176.36 5.75,-0.95 10.54,-1.92 16.29,-1.92l94.89 178.28c-1.92,-0.95 -2.87,-0.95 -2.87,0zm-87.22 32.58c-46.01,-62.3 -85.3,-128.44 -119.81,-198.41 13.42,-0.95 26.84,-1.92 40.26,-3.84 32.59,67.09 70.93,130.36 115.97,190.74 -11.51,3.84 -23.96,7.67 -36.42,11.51zm-65.18 18.22c-54.63,-69.97 -109.27,-139.94 -162.95,-208.95 17.26,-0.95 34.51,-0.95 50.8,-2.87 33.55,73.81 76.68,142.82 123.64,208.95 -3.84,0 -7.67,1.92 -11.51,2.87l0.01 0zm-79.55 15.34c-42.18,-55.6 -78.6,-113.1 -111.19,-174.44l133.23 170.61c-7.67,1.92 -14.38,2.87 -22.05,3.84l0.01 -0.01zm-81.47 12.45c-57.52,-74.76 -109.27,-152.41 -155.28,-234.83l42.18 0c0,1.92 -0.95,3.84 0,6.71 37.39,79.55 84.35,153.36 136.1,225.24l-23 2.87zm-92.97 4.79c-51.76,-76.68 -96.81,-156.23 -135.15,-240.58 4.79,0 8.62,0.95 13.42,0.95 0.95,2.87 -0.95,4.79 0.95,7.67 45.05,80.52 95.86,157.2 150.49,230.99 -9.59,0 -19.18,0.95 -29.72,0.95l0.01 0.01zm-73.81 1.92c-50.8,-82.43 -101.6,-164.87 -152.41,-248.25 10.54,0.95 21.08,0.95 31.63,1.92l0 2.87c37.39,85.3 82.43,165.82 133.23,243.45l-12.45 0zm-209.91 -4.79c-59.42,-85.3 -113.1,-174.44 -160.07,-268.38 2.87,0.95 6.71,0.95 9.59,1.92 0,3.84 0.95,8.62 4.79,12.46 63.26,88.19 134.2,170.61 200.32,256.88l-54.63 -2.87 0 -0.01zm-92.97 -11.5c-50.8,-88.19 -98.73,-178.28 -143.77,-270.3 3.84,0.95 7.67,1.92 10.54,1.92l0 1.92c45.05,93.94 98.73,182.11 156.23,268.38 -7.67,0 -15.34,0 -23,-1.92zm-163.9 -52.72c-56.55,-86.27 -113.1,-173.49 -170.61,-259.76 9.59,2.87 19.18,4.79 28.75,7.67 50.8,86.27 101.6,171.57 152.41,257.84 -3.37,-2.14 -6.92,-4.06 -10.53,-5.77l-0.01 0.02zm-166.79 -120.77c-36.42,-50.8 -67.09,-105.43 -92.97,-162.95 4.79,0.95 9.59,2.87 13.42,3.84 0.95,1.92 0,2.87 0.95,4.79l132.28 201.29c-18.21,-15.34 -36.42,-30.67 -53.68,-46.96l0 -0.01zm256.88 154.31c-52.72,-89.14 -105.43,-179.24 -158.15,-268.38 6.71,1.92 14.38,2.87 21.08,4.79 43.13,90.1 90.1,177.32 138.98,264.55 -0.95,0 -1.92,-0.95 -1.92,-0.95l0.01 -0.01zm284.67 35.47c0.95,-0.95 0.95,-1.92 1.92,-2.87 -16.29,-17.26 -29.72,-40.26 -44.09,-58.47 -51.76,-67.09 -105.43,-132.28 -156.23,-199.37 23.96,2.87 48.88,4.79 72.85,7.67 0.95,0.95 0,1.92 0,2.87 51.76,83.39 103.52,167.74 154.31,251.12 -9.59,-0.95 -19.18,-0.95 -28.75,-0.95l-0.01 0zm202.24 -241.55c0.95,0 0.95,0 0,0 0.95,0 0.95,0 0,0 0.95,0 0,0 0,0zm-940.28 -144.73c14.38,4.79 29.72,9.59 44.09,14.38 -0.95,4.79 -2.87,8.62 -0.95,14.38 3.84,9.59 8.62,18.21 12.46,27.8l-8.62 -8.62c-15.34,-16.29 -31.63,-31.63 -46.96,-47.93l-0.01 -0.01z"/>
   <path id="SvgjsPath14002" class="fil0" d="M5107.97 6977.93c-143.77,182.11 -124.61,431.33 38.34,575.1 172.53,162.95 469.67,201.29 680.53,9.59 105.43,-105.43 172.53,-258.79 143.77,-392.99 -9.59,-47.93 -28.75,-95.86 -57.52,-134.2 -19.18,-57.52 -47.93,-105.43 -95.86,-143.77 -201.29,-182.11 -536.76,-143.77 -709.29,86.27l0.02 0z"/>
   <path id="SvgjsPath14003" class="fil1" d="M5500.95 7715.98c-143.77,0 -277.97,-57.52 -373.81,-143.77 -172.53,-162.95 -191.7,-421.74 -38.34,-613.44 95.86,-115.02 230.04,-191.7 383.4,-201.29 134.2,-9.59 268.38,28.75 364.23,115.02 47.93,38.34 76.68,95.86 105.43,153.36 28.75,38.34 47.93,95.86 57.52,143.77 28.75,134.2 -28.75,306.72 -153.36,421.74 -105.43,86.27 -230.04,124.61 -345.06,124.61l-0.01 0zm-373.82 -718.87c-134.2,162.95 -115.02,392.99 38.34,536.76 162.95,143.77 450.49,191.7 632.61,9.59 105.43,-105.43 162.95,-249.21 134.2,-364.23 -9.59,-38.34 -28.75,-86.27 -47.93,-124.61l0 -9.59c-19.18,-47.93 -47.93,-95.86 -86.27,-134.2 -86.27,-76.68 -201.29,-115.02 -316.31,-105.43 -143.77,19.18 -268.38,86.27 -354.65,191.7l0 0.01zm450.5 469.67c0,-9.59 -9.59,-9.59 -9.59,-19.18 0,-19.18 0,-38.34 9.59,-47.93 19.18,-28.75 38.34,-38.34 67.09,-38.34 19.18,0 38.34,9.59 47.93,19.18l19.18 19.18c38.34,-38.34 57.52,-86.27 57.52,-143.77 0,-47.93 -19.18,-95.86 -47.93,-124.61 -19.18,-67.09 -76.68,-115.02 -143.77,-134.2 -38.34,-9.59 -86.27,-9.59 -124.61,0 28.75,76.68 -9.59,182.11 -105.43,182.11 -28.75,0 -57.52,-9.59 -76.68,-19.18 -38.34,95.86 -19.18,210.87 67.09,287.55 57.52,38.34 153.36,47.93 239.63,19.18l-0.01 0z"/>
   <path id="SvgjsPath13841" class="fil0" d="M5472.19 5779.82c-785.97,0 -1418.57,632.61 -1418.57,1418.57 0,785.96 632.61,1418.57 1418.57,1418.57 785.96,0 1418.57,-632.61 1418.57,-1418.57 0,-776.38 -632.61,-1418.57 -1418.57,-1418.57zm881.83 2022.42c-47.93,-19.18 -182.11,19.18 -555.93,9.59 -373.82,-9.59 -757.21,-115.02 -1054.35,-287.55 -297.14,-172.53 -373.81,-594.27 -373.81,-594.27 0,0 421.74,-86.27 987.25,-57.52 565.51,28.75 872.23,220.45 968.08,383.4 105.43,172.53 210.87,508 210.87,508 -9.59,67.09 -143.77,57.52 -182.11,38.34l0 0.01z"/>
   <path id="SvgjsPath13842" class="fil1" d="M6593.63 7715.98c-19.18,0 -28.75,9.59 -47.93,9.59 -9.59,-19.18 -9.59,-38.34 -19.18,-67.09 19.18,-9.59 38.34,-19.18 57.52,-38.34 19.18,-19.18 9.59,-47.93 -19.18,-47.93 -19.18,0 -38.34,9.59 -57.52,19.18 -9.59,-9.59 -9.59,-28.75 -19.18,-47.93 38.34,-19.18 67.09,-38.34 95.86,-57.52 19.18,-19.18 9.59,-47.93 -19.18,-47.93 -38.34,0 -67.09,19.18 -105.43,38.34 -9.59,-19.18 -19.18,-38.34 -28.75,-67.09 47.93,-19.18 86.27,-38.34 124.61,-67.09 19.18,-9.59 0,-47.93 -19.18,-38.34 -47.93,9.59 -86.27,28.75 -134.2,47.93 -9.59,-9.59 -9.59,-28.75 -19.18,-38.34 38.34,-19.18 76.68,-38.34 105.43,-67.09 19.18,-19.18 0,-38.34 -19.18,-38.34 -38.34,9.59 -76.68,28.75 -115.02,47.93 -9.59,-19.18 -19.18,-28.75 -28.75,-47.93 38.34,-19.18 76.68,-38.34 105.43,-67.09 19.18,-19.18 0,-38.34 -19.18,-38.34 -47.93,9.59 -86.27,28.75 -124.61,47.93 -9.59,-19.18 -28.75,-38.34 -47.93,-57.52 47.93,-19.18 86.27,-38.34 134.2,-67.09 19.18,-9.59 9.59,-38.34 -9.59,-38.34 -57.52,0 -115.02,28.75 -162.95,57.52l-28.75 -28.75c47.93,-19.18 86.27,-38.34 124.61,-67.09 9.59,-9.59 0,-28.75 -19.18,-28.75 -47.93,19.18 -95.86,47.93 -134.2,76.68l-9.59 -9.59c-9.59,0 -9.59,-9.59 -19.18,-9.59l86.27 -57.52c9.59,-9.59 0,-28.75 -9.59,-28.75 -47.93,0 -95.86,19.18 -134.2,47.93 -9.59,-9.59 -19.18,-9.59 -38.34,-19.18l28.75 -28.75c9.59,-9.59 0,-38.34 -19.18,-38.34 -28.75,-9.59 -67.09,9.59 -86.27,28.75 -450.49,-162.95 -1303.55,-143.77 -1706.13,-9.59 -28.75,9.59 -47.93,47.93 -38.34,76.68 9.59,28.75 47.93,47.93 76.68,38.34 9.59,0 28.75,-9.59 38.34,-9.59 -9.59,9.59 -9.59,28.75 -9.59,47.93 9.59,38.34 191.7,833.89 1514.43,833.89 143.77,0 306.72,-9.59 488.83,-28.75 38.34,0 57.52,-38.34 57.52,-67.09 0,-38.34 -38.34,-57.52 -67.09,-57.52 -1639.02,201.29 -1849.9,-661.36 -1859.48,-699.7 0,-19.18 -19.18,-38.34 -38.34,-38.34 498.42,-115.02 1399.41,-86.27 1667.79,115.02 287.55,220.45 412.15,814.72 421.74,824.31 9.59,28.75 28.75,47.93 57.52,47.93l9.66 -0.01c38.34,-9.59 57.52,-38.34 47.93,-76.68 0,-9.59 -9.59,-47.93 -28.75,-95.86 19.18,0 38.34,-19.18 47.93,-38.34 9.59,-9.59 -9.59,-28.75 -28.75,-28.75l-0.01 0zm-2319.55 -479.24c-19.18,-19.18 -47.93,9.59 -28.75,28.75 143.77,191.7 325.89,373.81 555.93,460.08 19.18,9.59 28.75,-19.18 19.18,-38.34 -191.7,-143.77 -383.4,-277.97 -546.34,-450.49l-0.01 0z"/>
   <path id="SvgjsPath14004" class="fil0" d="M9133.64 6977.93c-143.77,182.11 -124.61,431.33 38.34,575.1 172.53,162.95 469.67,201.29 680.53,9.59 105.43,-105.43 172.53,-258.79 143.77,-392.99 -9.59,-47.93 -28.75,-95.86 -57.52,-134.2 -19.18,-57.52 -47.93,-105.43 -95.86,-143.77 -201.29,-182.11 -536.76,-143.77 -709.29,86.27l0.02 0z"/>
   <path id="SvgjsPath14005" class="fil1" d="M9603.31 7466.77c0,-9.59 -9.59,-9.59 -9.59,-19.18 0,-19.18 0,-38.34 9.59,-47.93 19.18,-28.75 38.34,-38.34 67.09,-38.34 19.18,0 38.34,9.59 47.93,19.18l19.18 19.18c38.34,-38.34 57.52,-86.27 57.52,-143.77 0,-47.93 -19.18,-95.86 -47.93,-124.61 -19.18,-67.09 -76.68,-115.02 -143.77,-134.2 -38.34,-9.59 -86.27,-9.59 -124.61,0 28.75,76.68 -9.59,182.11 -105.43,182.11 -28.75,0 -57.52,-9.59 -76.68,-19.18 -38.34,95.86 -19.18,210.87 67.09,287.55 67.09,38.34 162.95,47.93 239.63,19.18l-0.01 0zm-76.68 249.2c-143.77,0 -277.97,-57.52 -373.81,-143.77 -172.53,-162.95 -191.7,-421.74 -38.34,-613.44 95.86,-115.02 230.04,-191.7 383.4,-201.29 134.2,-9.59 268.38,28.75 364.23,115.02 47.93,38.34 76.68,95.86 105.43,153.36 28.75,38.34 47.93,95.86 57.52,143.77 28.75,134.2 -28.75,306.72 -153.36,421.74 -105.43,86.27 -220.45,124.61 -345.06,124.61l-0.01 0zm-373.81 -718.87c-134.2,162.95 -115.02,392.99 38.34,536.76 162.95,143.77 450.49,191.7 632.61,9.59 105.43,-105.43 162.95,-249.21 134.2,-364.23 -9.59,-38.34 -28.75,-86.27 -47.93,-124.61l0 -9.59c-19.18,-47.93 -47.93,-95.86 -86.27,-134.2 -86.27,-76.68 -201.29,-115.02 -316.31,-105.43 -143.77,19.18 -268.38,86.27 -354.65,191.7l0 0.01z"/>
   <path id="SvgjsPath13843" class="fil0" d="M9497.88 5779.82c-785.97,0 -1418.57,632.61 -1418.57,1418.57 0,785.96 632.61,1418.57 1418.57,1418.57 785.96,0 1418.57,-632.61 1418.57,-1418.57 0,-776.38 -632.61,-1418.57 -1418.57,-1418.57zm728.46 1744.45c-297.13,172.53 -680.53,277.97 -1054.35,287.55 -373.82,9.59 -508,-28.75 -555.93,-9.59 -47.93,19.18 -182.11,28.75 -182.11,-38.34 0,0 105.43,-335.47 210.87,-508 105.44,-172.53 412.15,-364.23 968.08,-383.4 555.93,-19.16 987.25,57.52 987.25,57.52 0,0 -76.68,421.74 -373.81,594.27l0 -0.01z"/>
   <path id="SvgjsPath13846" class="fil1" d="M10724.75 6901.25c-460.08,-153.36 -1543.18,-162.95 -1888.24,105.43 -325.89,249.21 -460.08,872.23 -460.08,891.4 -9.59,38.34 19.18,67.09 47.93,76.68l9.58 0c28.75,0 57.52,-19.18 57.52,-47.93 0,-9.59 134.2,-603.85 421.74,-824.31 258.79,-201.29 1169.37,-230.04 1667.79,-115.02 -19.18,9.59 -28.75,19.18 -38.34,38.34 -9.59,38.34 -220.45,900.99 -1859.48,699.7 -38.34,0 -67.09,19.18 -67.09,57.52 0,38.34 19.18,67.09 57.52,67.09 172.53,19.18 335.47,28.75 488.83,28.75 1322.73,0 1504.84,-795.55 1514.43,-833.89 0,-19.18 0,-38.34 -9.59,-47.93 9.59,0 28.75,9.59 38.34,9.59 28.75,9.59 67.09,-9.59 76.68,-38.34 -9.59,-19.18 -28.75,-57.52 -57.52,-67.09z"/>
   <path id="SvgjsPath12876" class="fil0" d="M4759.08 5729.02c392.02,-16.29 1030.38,314.39 1313.14,477.33 281.79,162.95 607.69,162.95 564.55,-97.76 -43.13,-260.71 -1117.6,-662.32 -1454.04,-715.99 -336.44,-54.63 -650.82,108.31 -1172.24,650.82 0,0 487.87,-303.84 748.59,-314.39l0 -0.01z"/>
   <path id="SvgjsPath12877" class="fil1" d="M3972.16 6075.03c15.34,19.18 43.13,23.96 64.22,10.54 4.79,-2.87 480.21,-297.13 724.63,-307.67 323.01,-12.46 876.07,234.83 1286.3,471.59 135.15,77.63 273.17,118.86 386.27,118.86 69.01,0 128.44,-15.34 172.53,-46.01 66.14,-46.01 93.94,-124.61 78.6,-221.42 -50.8,-303.84 -1164.57,-703.53 -1494.3,-756.25 -363.27,-58.47 -692.99,121.73 -1215.38,665.19 -17.26,18.21 -18.21,46.01 -2.87,65.17zm741.87 -391.07c-53.68,1.92 -172.53,6.71 -256.88,10.54 56.55,-45.05 111.19,-84.35 162.95,-116.94l212.78 103.52c-25.88,-1.92 -51.76,-1.92 -76.68,-0.95 -12.46,0.95 -26.84,1.92 -42.18,3.83l0.01 0zm329.72 28.75c-2.1,-2.43 -4.72,-4.38 -7.64,-5.75l-346.98 -168.69c45.05,-24.92 89.14,-44.09 132.28,-60.39l303.84 254.96c-26.83,-7.67 -54.63,-13.42 -81.47,-20.13l-0.02 0zm244.42 71.9l-393.94 -330.68c55.6,-14.38 110.23,-21.08 164.87,-22.05l389.15 412.15c-52.72,-20.13 -106.4,-40.26 -160.07,-59.42zm15.34 -315.35c0,0.95 0,0.95 0.95,1.92 120.77,150.49 280.84,350.81 383.4,479.25 -28.75,-13.42 -58.47,-26.84 -88.18,-40.26l-441.87 -468.7c5.75,0.95 11.5,0.95 17.26,0.95 36.42,4.79 80.51,14.38 128.44,26.84l0 -0.01zm520.45 547.3c-66.14,-84.35 -297.13,-371.9 -414.07,-518.55 59.42,17.26 122.69,38.34 187.86,61.34l350.81 522.37c-37.39,-20.13 -79.55,-42.18 -124.61,-65.18l0.01 0.01zm250.17 135.15l-371.89 -554c54.63,20.13 110.23,42.18 165.82,65.18 0.95,0.95 0,2.87 0.95,3.84l322.05 544.42c-31.63,-13.42 -63.26,-28.75 -94.89,-46.96 -6.71,-3.84 -14.38,-8.62 -22.05,-12.46l0 -0.02zm213.75 93.94l-320.13 -540.6c60.39,26.84 119.81,53.68 175.41,81.47l0 0.95 238.66 478.29c-28.75,-4.79 -60.39,-10.54 -93.94,-20.13l0 0.01zm169.65 22.05l-215.66 -431.33c59.42,31.63 114.07,63.26 161.98,93.94l100.64 330.68c-15.34,3.83 -30.67,5.75 -46.96,6.71zm105.43 -36.43l-71.89 -236.75c55.6,45.05 90.1,87.22 96.81,122.69 10.54,66.14 -8.62,98.73 -24.92,114.07zm-2264.92 -400.64c25.88,-23.96 50.8,-45.05 75.73,-66.14 21.08,-0.95 49.85,-1.92 80.52,-3.83 -53.68,21.08 -106.4,45.05 -156.23,69.97l-0.01 0z"/>
   <path id="SvgjsPath12878" class="fil0" d="M10211 5729.02c-392.02,-16.29 -1030.38,314.39 -1313.14,477.33 -281.79,162.95 -607.69,162.95 -564.55,-97.76 43.13,-260.71 1117.6,-662.32 1454.04,-715.99 336.44,-54.63 650.82,108.31 1172.24,650.82 0,0 -487.87,-303.84 -748.59,-314.39l0 -0.01z"/>
   <path id="SvgjsPath12879" class="fil1" d="M10995.03 6009.86c-522.37,-543.47 -851.14,-723.66 -1215.36,-665.19 -329.72,52.72 -1443.5,452.41 -1494.3,756.25 -16.29,96.81 11.5,175.41 78.6,221.42 44.09,30.67 103.51,46.01 172.52,46.01 113.1,0 251.12,-41.21 386.27,-118.85 410.24,-236.75 963.29,-484.03 1286.3,-470.62 244.42,10.54 719.83,303.84 724.62,307.67 21.08,13.42 48.88,8.62 64.22,-10.54 7.04,-8.95 10.87,-20.02 10.87,-31.4 0,-12.9 -4.91,-25.33 -13.74,-34.74l0.01 -0.01zm-782.13 -329.72c-24.92,-0.95 -49.85,0 -76.68,0.95l212.78 -103.51c51.76,32.59 106.4,72.85 162.95,116.94 -84.35,-3.84 -203.19,-8.62 -256.87,-10.54 -14.38,-1.92 -28.75,-2.87 -42.17,-3.84l-0.01 0zm-368.06 52.71l303.84 -254.96c43.13,15.34 87.22,35.47 132.28,60.39l-346.98 168.69c-2.87,1.92 -5.75,3.83 -7.67,5.75 -26.84,6.71 -54.63,12.46 -81.47,20.13zm-323.01 112.15l389.15 -412.15c54.63,0 109.27,7.67 164.85,22.05l-393.94 330.68c-53.68,18.21 -107.35,38.34 -160.07,59.42l0.01 0zm274.13 -403.53c5.75,-0.95 11.51,-0.95 17.26,-0.95l-441.87 468.7c-29.72,13.42 -59.42,26.83 -88.19,40.26 102.56,-128.44 262.63,-328.77 383.4,-479.24 0,-0.95 0,-0.95 0.95,-1.92 46.96,-11.5 91.06,-21.08 128.44,-26.83l0.01 -0.01zm-774.46 640.28l350.81 -522.37c66.14,-23 129.4,-43.13 187.87,-61.34 -116.94,145.69 -347.93,434.2 -414.07,518.55 -45.05,23 -87.22,45.05 -124.61,65.17zm-147.61 82.43c-31.63,18.21 -63.26,32.59 -94.89,46.96l322.05 -544.42c0.95,-0.95 0,-1.92 0.95,-3.83 55.6,-23 111.19,-45.05 165.82,-65.17l-371.9 554.01c-7.67,3.83 -15.34,8.62 -22.05,12.46l0.01 -0.01zm-286.59 100.64l238.66 -478.29 0 -0.95c56.55,-27.8 115.02,-54.63 175.41,-81.47l-320.13 540.58c-32.59,10.54 -64.22,16.29 -93.94,20.13zm-120.77 -3.83l100.64 -330.68c46.96,-30.67 102.56,-62.3 161.98,-93.94l-215.66 431.33c-17.26,-0.95 -32.59,-2.87 -46.96,-6.71zm-84.35 -143.77c5.75,-36.42 41.21,-77.63 96.81,-122.69l-71.89 236.75c-16.29,-15.34 -35.47,-47.93 -24.92,-114.07zm2133.61 -356.57c31.63,0.95 59.42,2.87 80.51,3.84 24.92,21.08 49.84,42.18 75.73,66.14 -49.84,-24.92 -102.56,-48.88 -156.23,-69.97l0 -0.01z"/>
   <path id="SvgjsPath13273" class="fil0" d="M8209.66 9159.47c77.63,-28.75 142.82,-198.41 103.52,-333.56 -39.29,-135.15 -348.9,-412.15 -690.12,-467.75 -341.23,-55.6 -968.08,0 -1134.86,301.92 -166.77,301.92 -31.63,515.67 103.52,515.67 135.15,0 428.45,-111.19 428.45,-111.19 0,0 206.08,166.77 341.23,166.77 135.15,0 452.41,-159.11 452.41,-159.11 0,0 221.42,150.49 395.86,87.22l-0.02 0.01z"/>
   <path id="SvgjsPath13274" class="fil1" d="M8243.21 9008.03c-76.68,-65.18 -205.11,-69.01 -296.18,-46.96 -249.21,57.52 -416.94,285.63 -691.07,165.82 -165.82,-72.85 -305.76,-206.08 -494.59,-220.45 -88.19,-6.71 -223.32,13.42 -277.97,92.97 -49.85,71.89 -5.75,146.65 65.18,183.08 125.56,64.22 301.92,-12.46 422.69,-70.93 129.4,69.97 248.25,163.9 398.73,184.03 147.61,20.13 274.13,-46.01 399.69,-114.07 23,-12.46 45.05,-23.96 67.09,-35.47 110.23,52.72 291.38,122.69 400.65,44.09 68.06,-48.88 67.09,-129.4 5.75,-182.11l0.01 0zm-1642.86 58.47c29.72,-44.09 125.56,-36.42 191.7,-22.05 -10.54,2.87 -21.08,6.71 -31.63,9.59 -18.21,4.79 -157.2,8.62 -160.07,12.46z"/>
   <path id="SvgjsPath13275" class="fil1" d="M7066.17 8106.09c-14.38,-746.67 11.51,-1492.38 76.68,-2236.17 7.67,-83.39 -122.69,-82.43 -130.36,0 -65.18,743.79 -91.06,1489.5 -76.68,2236.17 1.92,83.39 132.28,84.35 130.36,0z"/>
   <path id="SvgjsPath13085" class="fil0" d="M9986.7 3163.13c0,0 -402.57,1044.76 -2118.27,1696.54 0,0 -115.02,-19.18 220.45,-383.4 335.47,-354.65 -910.57,536.76 -1265.21,603.85 -354.65,67.09 709.29,-891.4 709.29,-891.4 0,0 -1696.54,1131.03 -1869.07,1044.76 -182.11,-86.27 709.29,-805.13 709.29,-805.13 0,0 -1380.23,977.67 -1581.52,1025.59 -201.29,47.92 776.38,-1073.51 776.38,-1073.51 0,0 -1073.51,757.21 -1332.3,1514.43 -268.38,757.21 -421.74,670.95 -421.74,335.47 0,-335.48 182.11,-958.49 182.11,-958.49 0,0 -402.57,488.83 -335.47,1495.25 67.1,1006.42 86.27,1562.34 -67.09,1313.14 -153.36,-249.21 -383.4,-1667.79 -383.4,-1667.79 0,0 115.02,1140.6 -67.09,1044.76 -182.11,-86.27 -575.1,-1782.8 -575.1,-2338.73 0,-555.92 134.2,-1466.5 383.4,-1897.82 0,0 -316.31,623.02 -536.76,891.4 -220.45,268.38 249.21,-1178.94 642.19,-1648.61 392.97,-469.67 1207.71,-977.67 1207.71,-977.67 0,0 -1073.51,508 -843.47,249.21 220.45,-268.38 2003.26,-1734.88 4830.81,-1025.59 0,0 -575.1,-335.47 -891.4,-536.76 -316.31,-201.29 1025.59,19.18 1428.16,268.38 402.57,249.21 776.38,805.13 776.38,805.13 0,0 1332.3,67.09 1869.06,335.47 536.76,268.38 -670.95,19.18 -1092.69,86.27 0,0 1073.51,536.76 1514.43,910.57 440.91,373.81 738.04,1044.76 536.76,977.67 -201.29,-67.09 -603.85,-555.93 -603.85,-555.93 0,0 383.4,757.21 536.76,1581.52 153.36,824.31 220.45,1514.43 86.27,1897.82 -134.18,383.4 -335.47,-1226.87 -335.47,-1226.87 0,0 47.93,1092.69 -182.11,1869.06 -220.45,776.38 -508,1140.6 -555.93,824.31 -47.93,-316.29 201.29,-910.57 201.29,-1428.16 0,-517.59 -220.47,-1131.03 -220.47,-1131.03 0,0 67.09,843.47 -115.02,603.85 -182.11,-249.21 -383.4,-805.13 -603.85,-1246.05 -210.87,-450.49 -546.34,-469.67 -613.44,-1581.52l0 0.01z"/>
   <path id="SvgjsPath13086" class="fil1" d="M12421.27 4562.54c-76.68,-412.15 -210.87,-805.13 -325.89,-1092.69 95.86,86.27 191.7,153.36 268.38,182.11 86.27,28.75 143.77,-9.59 172.53,-57.52 105.43,-191.7 -268.38,-795.55 -613.44,-1083.1 -297.13,-249.21 -843.47,-565.51 -1198.12,-747.63 105.43,9.59 230.04,19.18 335.47,19.18 431.33,38.34 575.1,47.93 603.85,-76.68 28.75,-105.43 -95.86,-172.53 -182.11,-210.87 -498.42,-249.21 -1619.86,-325.89 -1859.48,-345.06 -95.86,-134.2 -421.74,-575.1 -785.97,-795.55 -258.79,-153.36 -1476.09,-488.83 -1600.68,-297.13 -19.18,19.18 -57.52,105.43 76.68,191.7 105.43,67.09 249.21,162.95 392.99,239.63 -2789.2,-450.48 -4341.96,1159.79 -4361.13,1178.96 -76.68,86.27 -57.52,153.36 -28.75,191.7 28.75,28.75 57.52,67.09 239.63,28.75 -201.29,162.95 -412.15,345.06 -565.51,517.59 -325.89,383.4 -785.97,1571.93 -718.87,1763.63 9.59,38.34 47.93,67.09 86.27,76.68 67.09,9.59 115.02,-47.93 134.2,-67.09 28.75,-38.34 57.52,-76.68 95.86,-124.61 -76.68,383.4 -105.43,785.97 -105.43,1063.93 0,488.83 383.4,2300.39 632.61,2424.99 47.93,19.18 95.86,19.18 134.2,-9.59 28.75,-19.18 47.93,-47.93 67.09,-105.43 67.09,306.72 143.77,594.27 210.87,699.7 47.93,67.09 86.27,105.43 143.77,105.43 9.59,0 28.75,0 38.34,-9.59 124.61,-38.34 153.36,-182.11 67.09,-1466.5 -28.75,-105.43 -28.75,-210.87 -28.75,-306.72 28.75,76.68 67.09,115.02 134.2,124.61 105.43,19.18 239.63,-47.93 450.49,-642.19 76.68,-220.45 239.63,-450.49 412.15,-661.36 -95.86,153.36 -76.68,191.7 -57.52,220.45 19.18,28.75 67.09,67.09 124.61,47.93 95.86,-19.18 421.74,-220.45 757.21,-450.49 -19.18,38.34 -28.75,76.68 -28.75,105.43 9.59,47.93 28.75,86.27 76.68,105.43 115.02,57.52 508,-124.61 1188.53,-546.34 -191.7,230.04 -162.95,297.13 -143.77,335.47 19.18,28.75 57.52,86.27 172.53,67.09 191.7,-38.34 565.51,-258.79 900.99,-460.08 19.18,-9.59 47.93,-28.75 67.09,-38.34 -57.52,95.86 -57.52,153.36 -47.93,191.7 19.18,47.93 57.52,76.68 86.27,86.27l47.88 0.01c1198.12,-450.49 1773.22,-1092.69 2012.84,-1466.5 76.68,584.68 239.63,805.13 412.15,1006.42 67.09,95.86 134.2,172.53 201.29,297.13 86.27,172.53 162.95,354.65 239.63,536.76 124.61,297.13 249.21,565.51 364.23,728.46 67.09,95.86 143.77,86.27 172.53,76.68 19.18,-9.59 57.52,-19.18 86.27,-95.86 28.75,162.95 57.52,335.47 57.52,498.42 0,249.21 -57.52,527.17 -115.02,766.8 -57.52,268.38 -105.43,498.42 -86.27,670.95 19.18,162.95 105.43,191.7 153.36,191.7 277.97,19.18 517.59,-766.8 584.68,-1006.42 76.68,-287.55 124.61,-603.85 153.36,-900.99 86.27,373.81 162.95,383.4 210.87,383.4 38.34,0 105.43,-9.59 143.77,-124.61 153.36,-345.06 124.61,-958.49 -57.52,-1936.16l-0.04 0.02zm-57.5 1744.45c-57.52,-230.04 -134.2,-670.95 -182.11,-1063.93 -9.59,-47.93 -47.93,-86.27 -105.43,-86.27 -47.93,0 -86.27,47.93 -86.27,95.86 0,9.59 38.34,1083.1 -172.53,1840.31 -134.2,479.25 -287.55,757.21 -373.81,843.47 -19.18,-134.2 28.75,-364.23 86.27,-603.85 57.52,-249.21 115.02,-536.76 115.02,-805.13 0,-527.17 -220.45,-1140.6 -230.04,-1169.37 -9.59,-38.34 -47.93,-67.09 -86.27,-67.09l-19.18 -0.01c-47.93,9.59 -76.68,57.52 -76.68,105.43 9.59,153.36 19.18,335.47 9.59,450.49 -86.27,-153.36 -191.7,-373.81 -287.55,-613.44 -76.68,-182.11 -162.95,-364.23 -249.21,-536.76 -67.09,-134.2 -143.77,-230.04 -220.45,-325.89 -182.11,-230.04 -354.65,-450.49 -392.99,-1217.28 0,-47.93 -38.34,-86.27 -76.68,-86.27 -47.93,-9.59 -86.27,19.18 -105.43,57.52 0,9.59 -373.81,929.74 -1859.48,1562.34 28.75,-38.34 67.09,-86.27 124.61,-143.77 47.93,-47.93 124.61,-134.2 57.52,-210.87 -67.09,-86.27 -134.2,-47.93 -575.1,210.87 -239.63,143.77 -546.34,325.89 -738.04,402.57 134.2,-162.95 421.74,-450.49 690.12,-690.12 38.34,-38.34 38.34,-86.27 9.59,-134.2 -28.75,-38.34 -86.27,-47.93 -124.61,-19.18 -670.95,450.49 -1418.57,900.99 -1696.54,1016.01 105.43,-143.77 392.99,-402.57 651.78,-613.44 38.34,-28.75 47.93,-95.86 19.18,-134.2 -28.75,-38.34 -86.27,-47.93 -134.2,-19.18 -488.83,345.06 -1035.17,718.87 -1332.3,891.4 153.36,-201.29 412.15,-527.17 661.36,-795.55 28.75,-38.34 28.75,-95.86 0,-124.61 -28.75,-38.34 -86.27,-38.34 -124.61,-9.59 -67.09,28.75 -1121.44,776.38 -1389.82,1552.77 -105.43,306.72 -182.11,440.91 -230.04,488.83 -9.59,-28.75 -9.59,-67.09 -9.59,-124.61 0,-316.31 172.53,-929.74 172.53,-929.74 9.59,-47.93 -9.59,-86.27 -47.93,-115.02 -38.34,-19.18 -86.27,-9.59 -115.02,28.75 -19.18,19.18 -421.74,527.17 -354.65,1562.34 19.18,316.31 57.52,833.89 47.93,1111.85 -105.43,-316.31 -230.04,-1025.59 -306.72,-1485.66 -9.59,-47.93 -57.52,-86.27 -105.43,-76.68 -47.92,9.59 -86.27,57.52 -86.27,105.43 28.75,316.31 47.93,690.12 28.75,872.23 -162.95,-364.23 -479.25,-1667.79 -479.25,-2166.2 0,-536.76 115.02,-1313.14 316.31,-1744.47 28.75,-57.52 47.93,-105.43 57.52,-105.43 19.18,-47.93 9.59,-105.43 -38.34,-124.61 -47.93,-28.75 -105.43,-9.59 -124.61,38.34l-57.52 115.02c-57.52,115.02 -162.95,316.31 -277.97,488.83 124.61,-383.4 373.81,-987.25 603.85,-1246.05 383.4,-450.49 1169.37,-958.49 1178.94,-958.49 38.34,-28.75 57.52,-86.27 28.75,-124.61 -28.75,-47.93 -76.68,-57.52 -124.61,-38.34 -201.29,95.86 -431.33,191.7 -594.27,258.79 536.76,-469.67 2214.12,-1456.91 4600.77,-853.06 47.93,9.59 95.86,-9.59 115.02,-57.52 19.16,-47.93 0,-95.86 -38.34,-115.02 -9.59,0 -402.57,-230.04 -709.29,-421.74 325.89,38.34 910.57,172.53 1150.19,316.31 373.81,230.04 747.63,766.8 747.63,776.38 19.18,28.75 47.93,38.34 76.68,38.34 9.59,0 1102.27,57.52 1686.95,258.79 -57.52,0 -115.02,-9.59 -172.53,-9.59 -268.38,-19.18 -565.51,-47.93 -747.63,-19.18 -38.34,9.59 -76.68,38.34 -76.68,76.68 0,38.34 19.18,86.27 47.93,95.86 9.59,9.59 1063.93,536.76 1495.25,900.99 297.13,249.21 488.83,603.85 546.34,776.38 -143.77,-95.86 -354.65,-335.47 -479.25,-479.25 -28.75,-38.34 -86.27,-47.93 -124.61,-19.18 -38.34,28.75 -57.52,76.68 -38.34,124.61 0,9.59 373.81,757.21 527.17,1552.77 143.77,766.8 182.11,1322.73 124.61,1667.79l0.06 0.06zm-2942.57 -3584.76c-335.47,431.33 -757.21,766.8 -1255.62,996.83 -67.09,28.75 -9.59,134.2 57.52,105.43 508,-230.04 939.33,-575.1 1284.39,-1016.01 47.93,-67.09 -38.34,-153.36 -86.27,-86.27l-0.01 0.01zm-555.93 -220.46c-431.33,431.33 -929.74,757.21 -1485.66,987.25 -67.09,28.75 -38.34,143.77 28.75,115.02 584.68,-239.63 1092.69,-575.1 1543.18,-1016.01 47.93,-57.52 -28.75,-143.77 -86.27,-86.27l0 0.01zm-1399.4 306.72c-594.27,402.57 -1217.28,766.8 -1859.48,1083.1 -67.09,38.34 -9.59,134.2 57.52,105.43 651.78,-316.31 1265.21,-670.95 1859.48,-1083.1 67.09,-47.93 9.59,-153.36 -57.52,-105.43zm-1974.5 728.46c-584.68,383.4 -1083.1,862.65 -1485.66,1437.75 -47.93,67.09 57.52,124.61 105.43,57.52 383.4,-555.93 872.23,-1025.59 1437.75,-1389.82 67.09,-47.93 9.59,-153.36 -57.52,-105.43l0 -0.01zm-1456.91 623.02c-239.63,383.4 -440.91,776.38 -613.44,1198.12 -28.75,67.09 86.27,105.43 115.02,28.75 162.95,-412.15 364.23,-795.55 594.27,-1169.37 47.93,-67.09 -57.52,-124.61 -95.86,-57.52l0 0.01zm-872.23 670.95c-95.86,431.33 -124.61,872.23 -86.27,1313.14 9.59,76.68 124.61,76.68 124.61,0 -38.34,-431.33 -9.59,-862.65 86.27,-1284.39 9.59,-67.09 -105.43,-95.86 -124.61,-28.75zm4849.97 -2367.49c-67.09,38.34 -9.59,143.77 57.52,105.43 345.06,-201.29 632.61,-479.25 843.47,-805.13 38.34,-67.09 -57.52,-124.61 -105.43,-57.52 -201.29,306.72 -469.67,555.93 -795.55,757.21l-0.01 0.01zm-1869.06 661.36c584.68,-268.38 1092.69,-632.61 1533.59,-1102.27 57.52,-57.52 -28.75,-143.77 -86.27,-86.27 -431.33,460.08 -939.33,824.31 -1514.43,1083.1 -57.52,28.75 0,134.2 67.09,105.43l0.01 0zm-536.76 -603.85c-488.83,306.72 -948.91,642.19 -1389.82,1025.59 -57.52,47.93 28.75,134.2 86.27,86.27 431.33,-373.81 881.81,-699.7 1361.07,-1006.42 67.09,-38.34 9.59,-143.77 -57.52,-105.43zm-1073.51 -287.55c67.09,-38.34 9.59,-143.77 -57.52,-105.43 -642.19,402.57 -1092.69,996.83 -1313.14,1725.29 -19.18,76.68 95.86,105.43 115.02,28.75 201.29,-690.12 642.19,-1265.21 1255.62,-1648.61l0.01 0zm345.06 -623.01c383.4,-249.21 805.13,-421.74 1255.62,-517.59 76.68,-19.18 47.93,-134.2 -28.75,-115.02 -460.08,95.86 -891.4,277.97 -1284.39,527.17 -67.09,38.34 -9.59,143.77 57.52,105.43l0 0.01zm1025.59 249.2c287.55,-162.95 603.85,-268.38 929.74,-316.31 76.68,-9.59 47.93,-124.61 -28.75,-115.02 -345.06,47.93 -661.36,162.95 -958.49,335.47 -67.09,28.75 -9.59,134.2 57.52,95.86l-0.01 0zm1619.86 -642.19c354.65,9.59 690.12,76.68 1016.01,191.7 76.68,28.75 105.43,-86.27 28.75,-115.02 -345.06,-124.61 -690.12,-182.11 -1054.35,-201.29 -67.09,0 -67.09,124.61 9.59,124.61zm2377.07 728.46c-47.93,268.38 -124.61,527.17 -230.04,776.38 -28.75,67.09 86.27,105.43 115.02,28.75 105.43,-249.21 182.11,-508 230.04,-776.38 9.59,-76.68 -105.43,-105.43 -115.02,-28.75zm412.15 440.9c9.59,-76.68 -115.02,-76.68 -124.61,0 -28.75,354.65 9.59,690.12 105.43,1035.17 19.18,76.68 134.2,38.34 115.02,-28.75 -95.86,-335.47 -124.61,-670.95 -95.86,-1006.42l0.01 0zm421.74 1648.61c-28.75,-67.09 -143.77,-38.34 -115.02,28.75 95.86,239.63 230.04,469.67 392.99,670.95 47.93,57.52 134.2,-28.75 86.27,-86.27 -153.36,-182.11 -277.97,-383.4 -364.23,-613.44zm201.29 -440.9c-182.11,-249.21 -287.55,-527.17 -335.47,-833.89 -9.59,-76.68 -124.61,-47.93 -115.02,28.75 47.93,316.31 162.95,603.85 345.06,862.65 47.93,67.09 153.36,9.59 105.43,-57.52zm335.47 488.83c-38.34,-67.09 -143.77,-9.59 -105.43,57.52 153.36,239.63 277.97,479.25 392.99,738.04 28.75,67.09 134.2,9.59 105.43,-57.52 -115.02,-258.79 -249.21,-508 -392.99,-738.04zm421.74 1303.55c9.59,201.29 28.75,392.99 38.34,594.27 0,76.68 124.61,76.68 124.61,0 -9.59,-201.29 -28.75,-392.99 -38.34,-594.27 -9.59,-76.68 -124.61,-76.68 -124.61,0zm-201.27 -2051.17c-95.86,-162.95 -182.11,-335.47 -277.97,-498.42 -38.34,-67.09 -143.77,-9.59 -105.43,57.52 95.86,162.95 182.11,335.47 277.97,498.42 38.34,67.09 143.77,9.59 105.43,-57.52zm230.04 929.73c105.43,230.04 172.53,460.08 220.45,709.29 9.59,76.68 124.61,47.93 115.02,-28.75 -38.34,-258.79 -115.02,-498.42 -230.04,-738.04 -38.34,-67.09 -143.77,-9.59 -105.43,57.52l0 -0.01z"/>
  </g>
 </g>
</svg>
