<?xml version="1.0" encoding="UTF-8"?>
<!DOCTYPE svg PUBLIC "-//W3C//DTD SVG 1.1//EN" "http://www.w3.org/Graphics/SVG/1.1/DTD/svg11.dtd">
<!-- Creator: CorelDRAW -->
<svg xmlns="http://www.w3.org/2000/svg" xml:space="preserve" width="76.2737mm" height="96.7388mm" version="1.1" style="shape-rendering:geometricPrecision; text-rendering:geometricPrecision; image-rendering:optimizeQuality; fill-rule:evenodd; clip-rule:evenodd"
viewBox="0 0 6829.21 8661.56"
 xmlns:xlink="http://www.w3.org/1999/xlink"
 xmlns:xodm="http://www.corel.com/coreldraw/odm/2003">
 <defs>
  <style type="text/css">
   <![CDATA[
    .fil0 {fill:#B12B95}
   ]]>
  </style>
 </defs>
 <g id="Layer_x0020_1">
  <metadata id="CorelCorpID_0Corel-Layer"/>
  <g id="_1266399640112">
   <path class="fil0" d="M1479.7 4528.81c-26.49,-142.02 22.97,-557.15 35.83,-725.28 68.38,-893.86 180.68,-713.65 1503.44,-753.37 493.2,-14.81 991.39,2.1 1483.27,10.87 676.99,12.08 759.21,42.76 808.24,720.31 13.08,180.66 62.9,553.73 43.21,714.11 -38.29,311.88 -549.55,592.08 -954.62,512.12 -213.58,-42.16 -423.03,-76.2 -633.83,-117.1 -333.39,-64.69 -338.02,-71.85 -673.08,-5.21 -102.25,20.34 -218.71,41.98 -321.79,62.48 -580.86,115.48 -560.3,141.53 -912.31,-48.23 -181.56,-97.89 -335.49,-140.88 -378.36,-370.69zm645 -2527.56c-643.14,90.91 -1112.63,550.68 -1261.39,1099.08 -118.55,437.04 -98.9,1745.38 95.24,2129.56 530.7,1050.21 1482.4,873.88 2628.99,873.5 323.04,-0.11 840.79,29.4 1141.09,-17.14 610.5,-94.6 1088.63,-558.99 1234.72,-1108.3 84.96,-319.47 55.59,-767.19 55.52,-1112.45 -0.08,-416.93 21.24,-654.59 -152.03,-1015.65 -246.42,-513.5 -734.66,-864.29 -1457.12,-868.96 -622.18,-4.03 -1721.37,-59.32 -2285.01,20.35z"/>
   <path class="fil0" d="M2112.28 7434.73c28.84,376.91 857.42,1151.22 1150.93,1210.12 421.69,84.61 640.02,-170.92 812.11,-343.4 144.5,-144.81 463.33,-426.96 562.45,-607.14 174.14,-316.53 44.41,-709.11 -149.42,-876.37 -197.23,-170.2 -572.74,-256.8 -900.21,-280.2 -321.94,-23 -553.82,6.01 -846.49,84.04 -361.05,96.27 -665.84,336.22 -629.37,812.96z"/>
   <path class="fil0" d="M3312.3 633.13l0.11 620.05c-290.32,2.49 -478.68,127.53 -473.39,422.97l1150.08 2.21c4.33,-297.31 -184.03,-422.22 -473.82,-424.9l0.87 -620.19c373.77,-128.28 254.83,-619.72 -87.01,-632.98 -367.58,-14.27 -495.96,505.88 -116.83,632.84z"/>
   <path class="fil0" d="M499.57 4913.51l3.54 -1746.27c-265.14,3.36 -389.03,-3.16 -463.98,213.85 -52.69,152.59 -48.18,1170.54 -10.11,1293.48 20.15,65.08 95.31,168.27 148.88,199.67 86.8,50.87 211.39,39.8 321.67,39.27z"/>
   <path class="fil0" d="M6326.08 4916.32c610.18,-6.62 493.88,-354.79 494.88,-892.89 1.25,-675.21 53.54,-849.15 -492.9,-854.05l-1.98 1746.95z"/>
   <path class="fil0" d="M2465.66 3642.53c-467.84,164.9 -425.55,577.12 -316.75,626.43 193.6,87.74 177.82,-175.49 242.12,-273.53 72.94,-111.18 253.57,-172.62 390.52,-82.32 146.31,96.48 92.46,276.74 198.75,345.59 369.59,239.41 189.98,-864.54 -514.64,-616.17z"/>
   <path class="fil0" d="M4696.53 4272.93c167.75,-256.3 -94.59,-557.29 -315.46,-635.32 -335.33,-118.47 -632.8,110.01 -701.71,353.61 -39.95,141.24 -20.32,388.52 168.73,268.01 117.38,-74.82 24.45,-226.17 202.82,-341.14 134.03,-86.38 296.64,-42.99 373.28,58.8 107.83,143.19 9.31,322.68 272.34,296.04z"/>
  </g>
 </g>
</svg>
